<svg width="20" height="20" viewBox="0 0 20 20" fill="none" xmlns="http://www.w3.org/2000/svg">
<path d="M19.7406 6.521L17.1761 3.25097C17.0059 3.03434 16.7567 2.89417 16.4832 2.86129C16.2097 2.8284 15.9343 2.9055 15.7177 3.07563L11.1172 6.68471C11.0862 6.70754 11.0496 6.72137 11.0113 6.72467C10.973 6.72797 10.9345 6.72062 10.9001 6.70342C10.8657 6.68622 10.8367 6.65985 10.8164 6.62722C10.796 6.59458 10.7851 6.55696 10.7848 6.51851V1.30226C10.7848 1.08186 10.6972 0.870488 10.5414 0.714644C10.3855 0.558799 10.1742 0.471246 9.95377 0.471246C9.73337 0.471246 9.522 0.558799 9.36616 0.714644C9.21031 0.870488 9.12276 1.08186 9.12276 1.30226V2.83547C9.12292 2.87202 9.11339 2.90797 9.09514 2.93964C9.0769 2.97132 9.05059 2.9976 9.01889 3.0158C8.98722 3.03379 8.95143 3.04325 8.91501 3.04325C8.87859 3.04325 8.8428 3.03379 8.81113 3.0158L3.82757 0.138842C3.58889 0.00138202 3.30546 -0.0358325 3.03939 0.0353576C2.77332 0.106548 2.54634 0.280333 2.4082 0.518614L0.122093 4.47672C0.081143 4.54757 0.0545694 4.62581 0.0438931 4.70695C0.0332168 4.7881 0.0386474 4.87055 0.059874 4.94959C0.0811006 5.02863 0.117707 5.10271 0.167597 5.16758C0.217487 5.23246 0.279681 5.28686 0.350621 5.32767L6.63056 8.95586C6.78787 9.04708 6.96644 9.09524 7.14828 9.09547C7.23974 9.0952 7.33079 9.08319 7.41919 9.05974C7.55105 9.02474 7.67463 8.96389 7.78277 8.88071C7.8909 8.79754 7.98143 8.69371 8.0491 8.57526L8.73136 7.39522C8.75431 7.35582 8.7896 7.32507 8.83176 7.30771C8.87393 7.29035 8.92064 7.28735 8.96468 7.29916C9.00872 7.31098 9.04766 7.33695 9.07547 7.37309C9.10329 7.40922 9.11845 7.4535 9.11861 7.4991V10.8456C9.11868 10.8781 9.11107 10.9102 9.09641 10.9393C9.08174 10.9684 9.06042 10.9935 9.03419 11.0128C9.00795 11.0321 8.97754 11.0449 8.94543 11.0502C8.91331 11.0555 8.8804 11.0532 8.84936 11.0434L5.4015 9.97135C5.13834 9.88945 4.85344 9.9154 4.60941 10.0435C4.36538 10.1716 4.1822 10.3913 4.10014 10.6544L3.41788 12.8516C3.37706 12.982 3.36233 13.1191 3.37453 13.2552C3.38673 13.3912 3.42562 13.5235 3.48898 13.6445C3.55234 13.7655 3.63893 13.8729 3.7438 13.9604C3.84866 14.0479 3.96975 14.1139 4.10014 14.1547L8.29092 15.4577C8.39021 15.4885 8.49359 15.5042 8.59756 15.5042C8.68389 15.504 8.76976 15.4916 8.85268 15.4677C8.8836 15.4586 8.91621 15.4569 8.9479 15.4627C8.9796 15.4684 9.00951 15.4815 9.03526 15.5009C9.061 15.5202 9.08187 15.5454 9.09619 15.5742C9.11052 15.6031 9.11791 15.6349 9.11777 15.6671V16.4707C9.11777 16.5258 9.09589 16.5786 9.05693 16.6176C9.01797 16.6565 8.96512 16.6784 8.91002 16.6784H7.248C7.11669 16.6787 6.9873 16.71 6.87044 16.7699C6.75358 16.8298 6.65258 16.9165 6.57571 17.023C6.49884 17.1295 6.4483 17.2526 6.42822 17.3824C6.40814 17.5122 6.4191 17.6448 6.46021 17.7696L7.10922 19.7158C7.13699 19.7992 7.19048 19.8716 7.262 19.9227C7.33353 19.9737 7.4194 20.0008 7.50728 20H12.4933C12.5807 20.0001 12.6658 19.9727 12.7366 19.9217C12.8075 19.8707 12.8605 19.7986 12.8881 19.7158L13.5363 17.7687C13.5777 17.6438 13.5889 17.5109 13.5689 17.3809C13.549 17.2508 13.4984 17.1273 13.4214 17.0206C13.3444 16.914 13.2432 16.8271 13.126 16.7671C13.0089 16.7072 12.8792 16.676 12.7476 16.6759H10.9884C10.9333 16.6759 10.8804 16.6541 10.8415 16.6151C10.8025 16.5761 10.7806 16.5233 10.7806 16.4682V10.5098C10.7806 10.4666 10.7941 10.4244 10.8192 10.3892C10.8443 10.354 10.8798 10.3274 10.9207 10.3134C10.9616 10.2993 11.0059 10.2983 11.0474 10.3106C11.0888 10.3229 11.1255 10.3478 11.1521 10.3819L12.549 12.1602C12.6467 12.284 12.7712 12.384 12.9131 12.4526C13.0551 12.5213 13.2107 12.5568 13.3684 12.5566C13.6002 12.5569 13.8253 12.479 14.0074 12.3356L19.5636 7.98025C19.7803 7.81006 19.9207 7.56082 19.9539 7.28723C19.9871 7.01365 19.9104 6.73808 19.7406 6.521ZM15.7667 7.74258C15.7667 7.94803 15.7058 8.14887 15.5916 8.31969C15.4775 8.49051 15.3153 8.62365 15.1254 8.70228C14.9356 8.7809 14.7268 8.80147 14.5253 8.76139C14.3238 8.72131 14.1387 8.62237 13.9934 8.4771C13.8481 8.33183 13.7492 8.14674 13.7091 7.94524C13.669 7.74374 13.6896 7.53488 13.7682 7.34507C13.8469 7.15526 13.98 6.99303 14.1508 6.87888C14.3216 6.76474 14.5225 6.70382 14.7279 6.70382C15.0034 6.70382 15.2676 6.81326 15.4624 7.00807C15.6572 7.20287 15.7667 7.46709 15.7667 7.74258ZM6.21007 4.41854C6.21007 4.62399 6.14915 4.82483 6.03501 4.99565C5.92087 5.16647 5.75864 5.29961 5.56883 5.37824C5.37902 5.45686 5.17016 5.47743 4.96866 5.43735C4.76716 5.39727 4.58207 5.29833 4.43679 5.15306C4.29152 5.00779 4.19259 4.8227 4.15251 4.6212C4.11243 4.4197 4.133 4.21084 4.21162 4.02103C4.29024 3.83122 4.42338 3.66899 4.5942 3.55484C4.76503 3.4407 4.96586 3.37978 5.17131 3.37978C5.44681 3.37978 5.71102 3.48922 5.90583 3.68403C6.10063 3.87883 6.21007 4.14305 6.21007 4.41854ZM6.83333 13.4633C6.66897 13.4633 6.5083 13.4145 6.37165 13.3232C6.23499 13.2319 6.12847 13.1021 6.06558 12.9503C6.00268 12.7984 5.98622 12.6313 6.01829 12.4701C6.05035 12.3089 6.1295 12.1609 6.24572 12.0446C6.36194 11.9284 6.51001 11.8493 6.67121 11.8172C6.83241 11.7851 6.9995 11.8016 7.15134 11.8645C7.30319 11.9274 7.43298 12.0339 7.52429 12.1706C7.6156 12.3072 7.66434 12.4679 7.66434 12.6322C7.66434 12.8526 7.57679 13.064 7.42094 13.2199C7.2651 13.3757 7.05373 13.4633 6.83333 13.4633Z" fill="#8B8B8C"/>
</svg>
