<svg width="24" height="24" viewBox="0 0 24 24" fill="none" xmlns="http://www.w3.org/2000/svg">
<g clip-path="url(#clip0)">
<path d="M12 8C13.3807 8 14.5 6.88071 14.5 5.5C14.5 4.11929 13.3807 3 12 3C10.6193 3 9.5 4.11929 9.5 5.5C9.5 6.88071 10.6193 8 12 8Z" fill="#8B8B8C"/>
<path d="M16.015 9.779C16.019 9.74393 16.0155 9.70843 16.0048 9.67481C15.9941 9.64118 15.9764 9.6102 15.9529 9.58387C15.9294 9.55754 15.9006 9.53647 15.8684 9.52201C15.8362 9.50756 15.8013 9.50006 15.766 9.5H8.23405C8.19876 9.50006 8.16388 9.50756 8.13169 9.52201C8.09949 9.53647 8.07071 9.55754 8.04721 9.58387C8.02372 9.6102 8.00604 9.64118 7.99532 9.67481C7.98461 9.70843 7.98111 9.74393 7.98505 9.779C7.99458 9.85229 7.99959 9.9261 8.00005 10C8.0006 10.7441 7.81533 11.4766 7.46105 12.131C7.44043 12.1691 7.43006 12.2119 7.43096 12.2552C7.43186 12.2985 7.444 12.3408 7.46618 12.378C7.48836 12.4152 7.51982 12.446 7.55749 12.4674C7.59516 12.4888 7.63773 12.5 7.68105 12.5H8.00005C8.26526 12.5 8.51962 12.6054 8.70715 12.7929C8.89469 12.9804 9.00005 13.2348 9.00005 13.5V23.5C9.00005 23.6326 9.05272 23.7598 9.14649 23.8536C9.24026 23.9473 9.36744 24 9.50005 24H11C11.1327 24 11.2598 23.9473 11.3536 23.8536C11.4474 23.7598 11.5 23.6326 11.5 23.5V19.5C11.5 19.3674 11.5527 19.2402 11.6465 19.1464C11.7403 19.0527 11.8674 19 12 19C12.1327 19 12.2598 19.0527 12.3536 19.1464C12.4474 19.2402 12.5 19.3674 12.5 19.5V23.5C12.5 23.6326 12.5527 23.7598 12.6465 23.8536C12.7403 23.9473 12.8674 24 13 24H14.5C14.6327 24 14.7598 23.9473 14.8536 23.8536C14.9474 23.7598 15 23.6326 15 23.5V13.5C15 13.2348 15.1054 12.9804 15.2929 12.7929C15.4805 12.6054 15.7348 12.5 16 12.5H16.319C16.3624 12.5 16.4049 12.4888 16.4426 12.4674C16.4803 12.446 16.5117 12.4152 16.5339 12.378C16.5561 12.3408 16.5682 12.2985 16.5691 12.2552C16.57 12.2119 16.5597 12.1691 16.539 12.131C16.1848 11.4766 15.9995 10.7441 16 10C16.0005 9.9261 16.0055 9.85229 16.015 9.779Z" fill="#8B8B8C"/>
<path d="M4.17363e-05 10C-0.0031312 10.6498 0.174668 11.2877 0.513525 11.8422C0.852383 12.3967 1.33892 12.8459 1.91864 13.1395C2.49836 13.4331 3.14837 13.5595 3.79587 13.5046C4.44338 13.4496 5.0628 13.2155 5.58478 12.8284C6.10675 12.4414 6.51065 11.9166 6.75126 11.313C6.99186 10.7093 7.05966 10.0506 6.94706 9.41062C6.83446 8.77062 6.54591 8.17461 6.11372 7.68933C5.68153 7.20405 5.12278 6.84867 4.50004 6.663V1C4.50004 0.734784 4.39468 0.48043 4.20715 0.292893C4.01961 0.105357 3.76526 0 3.50004 0C3.23483 0 2.98047 0.105357 2.79293 0.292893C2.6054 0.48043 2.50004 0.734784 2.50004 1V6.663C1.78003 6.87666 1.14802 7.31663 0.697713 7.91771C0.247403 8.51878 0.00275737 9.24896 4.17363e-05 10ZM5.00004 10C5.00004 10.2967 4.91207 10.5867 4.74725 10.8334C4.58242 11.08 4.34816 11.2723 4.07407 11.3858C3.79998 11.4994 3.49838 11.5291 3.20741 11.4712C2.91643 11.4133 2.64916 11.2704 2.43938 11.0607C2.2296 10.8509 2.08674 10.5836 2.02886 10.2926C1.97099 10.0017 2.00069 9.70006 2.11422 9.42597C2.22775 9.15189 2.42001 8.91762 2.66669 8.7528C2.91336 8.58797 3.20337 8.5 3.50004 8.5C3.89787 8.5 4.2794 8.65804 4.5607 8.93934C4.84201 9.22064 5.00004 9.60218 5.00004 10Z" fill="#8B8B8C"/>
<path d="M19.5 6.663C18.6943 6.9032 18.0021 7.42538 17.5497 8.13404C17.0974 8.8427 16.9153 9.69049 17.0367 10.5224C17.158 11.3543 17.5748 12.1147 18.2107 12.6646C18.8467 13.2145 19.6593 13.5171 20.5 13.5171C21.3407 13.5171 22.1533 13.2145 22.7893 12.6646C23.4252 12.1147 23.842 11.3543 23.9633 10.5224C24.0847 9.69049 23.9026 8.8427 23.4503 8.13404C22.998 7.42538 22.3057 6.9032 21.5 6.663V1C21.5 0.734784 21.3947 0.48043 21.2071 0.292893C21.0196 0.105357 20.7652 0 20.5 0C20.2348 0 19.9804 0.105357 19.7929 0.292893C19.6054 0.48043 19.5 0.734784 19.5 1V6.663ZM20.5 8.5C20.7967 8.5 21.0867 8.58797 21.3334 8.7528C21.58 8.91762 21.7723 9.15189 21.8858 9.42597C21.9994 9.70006 22.0291 10.0017 21.9712 10.2926C21.9133 10.5836 21.7704 10.8509 21.5607 11.0607C21.3509 11.2704 21.0836 11.4133 20.7926 11.4712C20.5017 11.5291 20.2001 11.4994 19.926 11.3858C19.6519 11.2723 19.4176 11.08 19.2528 10.8334C19.088 10.5867 19 10.2967 19 10C19 9.60218 19.158 9.22064 19.4393 8.93934C19.7207 8.65804 20.1022 8.5 20.5 8.5Z" fill="#8B8B8C"/>
</g>
<defs>
<clipPath id="clip0">
<rect width="24" height="24" fill="white"/>
</clipPath>
</defs>
</svg>
