<svg width="20" height="20" viewBox="0 0 20 20" fill="none" xmlns="http://www.w3.org/2000/svg">
<path d="M19.1667 1.0975C18.9457 1.0975 18.7337 1.1853 18.5774 1.34158C18.4211 1.49786 18.3333 1.70982 18.3333 1.93083V6.66C18.3333 8.39167 17.3333 9.16667 16.3333 9.16667C15.3333 9.16667 14.3333 8.39083 14.3333 6.65917V4.69C14.3383 1.21917 11.3517 0 9.34833 0C7.0725 0 4.77583 1.365 4.59833 3.9725C4.59476 4.02498 4.57147 4.07416 4.53313 4.11017C4.4948 4.14618 4.44426 4.16637 4.39167 4.16667H2.91667C2.14312 4.16667 1.40125 4.47396 0.854272 5.02094C0.307291 5.56792 0 6.30978 0 7.08333L0 14.5833C0 16.0199 0.570683 17.3977 1.5865 18.4135C2.60233 19.4293 3.98008 20 5.41667 20C6.85326 20 8.23101 19.4293 9.24683 18.4135C10.2627 17.3977 10.8333 16.0199 10.8333 14.5833V7.08333C10.8333 6.30978 10.526 5.56792 9.97906 5.02094C9.43208 4.47396 8.69021 4.16667 7.91667 4.16667H6.49167C6.46173 4.16698 6.43207 4.16081 6.40474 4.14859C6.37741 4.13636 6.35305 4.11836 6.33333 4.09583C6.31362 4.07321 6.29896 4.04664 6.29034 4.0179C6.28171 3.98916 6.27933 3.95891 6.28333 3.92917C6.48833 2.38333 7.96167 1.66667 9.34833 1.66667C9.67333 1.66667 12.6717 1.785 12.6717 4.68917V6.66C12.6717 9.4 14.515 10.8342 16.3383 10.8342C18.1617 10.8342 20 9.4 20 6.66V1.93083C20 1.70982 19.9122 1.49786 19.7559 1.34158C19.5996 1.1853 19.3877 1.0975 19.1667 1.0975ZM6.66667 9.26417C6.65237 9.58228 6.513 9.88186 6.27889 10.0977C6.04478 10.3136 5.73489 10.4282 5.41667 10.4167C5.09775 10.4282 4.78725 10.313 4.55303 10.0962C4.3188 9.87949 4.17989 9.57885 4.16667 9.26V7.4075C4.17968 7.08851 4.31849 6.78765 4.55274 6.57073C4.78699 6.35382 5.09762 6.2385 5.41667 6.25C5.73572 6.2385 6.04634 6.35382 6.28059 6.57073C6.51484 6.78765 6.65365 7.08851 6.66667 7.4075V9.26417Z" fill="#8B8B8C"/>
</svg>
