<svg width="22" height="20" viewBox="0 0 22 20" fill="none" xmlns="http://www.w3.org/2000/svg">
<path d="M21.0048 1.62326C21.0021 1.19212 20.8291 0.779507 20.5235 0.475418C20.2178 0.171329 19.8043 0.000432089 19.3732 0H2.62946C2.1981 0.00264085 1.78527 0.175741 1.48103 0.481549C1.17678 0.787356 1.0058 1.20106 1.00537 1.63243L0.995361 7.75365C1.01723 10.6101 2.00708 13.3747 3.8032 15.5959C5.59932 17.8171 8.09556 19.3636 10.8842 19.9827C10.9941 20.0058 11.1077 20.0058 11.2177 19.9827C14.0003 19.3382 16.4823 17.7693 18.2581 15.5321C20.0339 13.2948 20.9986 10.5216 20.9948 7.66527L21.0048 1.62326ZM16.4193 10.3774C16.4193 10.5211 16.3622 10.6589 16.2606 10.7606C16.1589 10.8622 16.0211 10.9193 15.8774 10.9193H13.5846C13.4741 10.9193 13.368 10.9632 13.2898 11.0414C13.2117 11.1196 13.1678 11.2256 13.1678 11.3362V13.6289C13.1678 13.7726 13.1107 13.9105 13.009 14.0121C12.9074 14.1137 12.7696 14.1708 12.6258 14.1708H9.3743C9.23058 14.1708 9.09274 14.1137 8.99111 14.0121C8.88948 13.9105 8.83238 13.7726 8.83238 13.6289V11.3362C8.83238 11.2256 8.78846 11.1196 8.71028 11.0414C8.63211 10.9632 8.52608 10.9193 8.41552 10.9193H6.12277C6.05161 10.9193 5.98114 10.9053 5.91539 10.8781C5.84964 10.8508 5.7899 10.8109 5.73958 10.7606C5.68925 10.7103 5.64934 10.6505 5.6221 10.5848C5.59487 10.519 5.58085 10.4485 5.58085 10.3774V7.12585C5.58085 7.05469 5.59487 6.98422 5.6221 6.91847C5.64934 6.85272 5.68925 6.79298 5.73958 6.74266C5.7899 6.69233 5.84964 6.65242 5.91539 6.62518C5.98114 6.59795 6.05161 6.58393 6.12277 6.58393H8.41552C8.52608 6.58393 8.63211 6.54001 8.71028 6.46183C8.78846 6.38366 8.83238 6.27763 8.83238 6.16707V3.87682C8.83238 3.7331 8.88948 3.59526 8.99111 3.49363C9.09274 3.392 9.23058 3.3349 9.3743 3.3349H12.6258C12.7696 3.3349 12.9074 3.392 13.009 3.49363C13.1107 3.59526 13.1678 3.7331 13.1678 3.87682V6.16957C13.1678 6.28013 13.2117 6.38616 13.2898 6.46433C13.368 6.54251 13.4741 6.58643 13.5846 6.58643H15.8774C16.0211 6.58643 16.1589 6.64353 16.2606 6.74516C16.3622 6.84679 16.4193 6.98463 16.4193 7.12835V10.3774Z" fill="#8B8B8C"/>
</svg>
