<svg width="20" height="20" viewBox="0 0 20 20" fill="none" xmlns="http://www.w3.org/2000/svg">
<path fill-rule="evenodd" clip-rule="evenodd" d="M13.9247 0.666992H5.22686C4.50544 0.666992 3.82486 0.802962 3.18511 1.07491C2.55898 1.34685 2.00771 1.72077 1.53131 2.19667C1.0549 2.67257 0.680581 3.23004 0.408348 3.86911C0.136115 4.49458 0 5.16763 0 5.88828V14.5972C0 15.3043 0.136115 15.9773 0.408348 16.6164C0.680581 17.2555 1.0549 17.8095 1.53131 18.2786C2.00771 18.7477 2.55898 19.1183 3.18511 19.3902C3.82486 19.6757 4.50544 19.8185 5.22686 19.8185H13.9247C14.6461 19.8185 15.3267 19.6757 15.9664 19.3902C16.5925 19.1183 17.1438 18.7477 17.6202 18.2786C18.0966 17.8095 18.4709 17.2555 18.7432 16.6164C19.0154 15.9773 19.1515 15.3043 19.1515 14.5972V5.88828C19.1515 5.16763 19.0154 4.49458 18.7432 3.86911C18.4709 3.23004 18.0966 2.67257 17.6202 2.19667C17.1438 1.72077 16.5925 1.34685 15.9664 1.07491C15.3267 0.802962 14.6461 0.666992 13.9247 0.666992ZM10.2664 5.88833C10.0486 5.84754 9.83081 5.82715 9.61303 5.82715C9.39524 5.82715 9.17746 5.84754 8.95967 5.88833C8.37437 5.96992 7.83672 6.16708 7.3467 6.47981C6.85668 6.79254 6.44833 7.17326 6.12165 7.62197C5.79497 8.07067 5.55677 8.57376 5.40704 9.13124C5.25732 9.68873 5.22329 10.2598 5.30496 10.8445C5.38663 11.4156 5.57719 11.9492 5.87664 12.4455C6.1761 12.9418 6.56403 13.3667 7.04043 13.7203C7.43517 13.9786 7.85032 14.1894 8.2859 14.3525C8.72147 14.5157 9.17745 14.5973 9.65386 14.5973C9.74914 14.5973 9.85463 14.5939 9.97033 14.5871C10.086 14.5803 10.1847 14.5497 10.2664 14.4953C10.8381 14.4137 11.3723 14.2234 11.8692 13.9242C12.366 13.6251 12.7913 13.2376 13.1452 12.7617C13.4991 12.2858 13.7407 11.7725 13.8701 11.2218C13.9994 10.6711 14.0164 10.1102 13.9211 9.53916C13.7986 8.58736 13.4005 7.77494 12.7267 7.10188C12.0529 6.42882 11.2328 6.02431 10.2664 5.88833ZM11.7602 11.7216C11.5424 11.9799 11.2838 12.2077 10.9843 12.4049C10.6849 12.602 10.3582 12.721 10.0043 12.7618C9.31009 12.8434 8.66694 12.6768 8.07484 12.2621C7.48273 11.8474 7.13904 11.2865 7.04376 10.5794C6.92125 9.88598 7.08119 9.24353 7.52357 8.65205C7.96595 8.06058 8.53423 7.71725 9.22842 7.62207C9.26926 7.62207 9.3271 7.62207 9.40197 7.62207C9.47683 7.62207 9.53468 7.62207 9.57551 7.62207C9.61635 7.62207 9.6742 7.62207 9.74907 7.62207C9.82393 7.62207 9.88178 7.62207 9.92261 7.62207C10.4943 7.71725 10.9775 7.962 11.3722 8.35631C11.767 8.75063 12.012 9.23332 12.1073 9.8044C12.1889 10.1579 12.1923 10.5013 12.1175 10.8344C12.0426 11.1675 11.9235 11.4633 11.7602 11.7216ZM13.7615 4.85011C13.6662 4.93169 13.5982 5.02007 13.5573 5.11525C13.5165 5.21043 13.4961 5.326 13.4961 5.46198C13.4961 5.58435 13.5165 5.69312 13.5573 5.78831C13.5982 5.88349 13.6662 5.97866 13.7615 6.07385C13.8432 6.15543 13.9419 6.21661 14.0576 6.25741C14.1733 6.2982 14.2788 6.31859 14.374 6.31859C14.4965 6.31859 14.6054 6.2982 14.7007 6.25741C14.796 6.21661 14.8913 6.15543 14.9866 6.07385C15.0682 5.97866 15.1295 5.87329 15.1703 5.75771C15.2112 5.64214 15.2316 5.54356 15.2316 5.46198C15.2316 5.326 15.2112 5.21043 15.1703 5.11525C15.1295 5.02007 15.0682 4.93169 14.9866 4.85011C14.8096 4.67334 14.6054 4.58496 14.374 4.58496C14.1426 4.58496 13.9385 4.67334 13.7615 4.85011Z" fill="white"/>
</svg>
