<svg width="18" height="18" viewBox="0 0 18 18" fill="none" xmlns="http://www.w3.org/2000/svg">
<path fill-rule="evenodd" clip-rule="evenodd" d="M4.36164 17.129H0.724121V5.1377H4.36164V17.129ZM13.5261 5.51152C14.8841 5.51152 15.9172 5.94286 16.6253 6.80555C17.3334 7.66823 17.6875 8.84722 17.6875 10.3425V17.129H14.0499V10.7164C14.0499 9.04851 13.4582 8.21459 12.2748 8.21459C11.3242 8.21459 10.7034 8.68427 10.4124 9.62364V17.129H6.7749C6.8137 9.93992 6.8137 5.94287 6.7749 5.1377H9.65582L9.88862 7.52445H9.94682C10.781 6.18249 11.9741 5.51152 13.5261 5.51152ZM0.665527 2.14464C0.665527 0.936877 1.29602 0.333008 2.55704 0.333008C3.79865 0.333008 4.41944 0.936877 4.41944 2.14464C4.41944 3.33323 3.79865 3.92751 2.55704 3.92751C1.29602 3.92751 0.665527 3.33323 0.665527 2.14464Z" fill="white"/>
</svg>
