<svg width="128" height="24" viewBox="0 0 128 24" fill="none" xmlns="http://www.w3.org/2000/svg">
<path fill-rule="evenodd" clip-rule="evenodd" d="M10.8571 0H0V24H10.8571C17.4857 24 22.8571 18.6286 22.8571 12C22.8571 5.37143 17.4857 0 10.8571 0ZM10.8571 17.1429H6.85714V6.85714H10.8571C13.7143 6.85714 16 9.14286 16 12C16 14.8571 13.6 17.1429 10.8571 17.1429ZM90.2857 0H79.4286V24H90.2857C96.9143 24 102.286 18.6286 102.286 12C102.286 5.37143 96.9143 0 90.2857 0ZM90.2857 17.1429H86.2857V6.85714H90.2857C93.1429 6.85714 95.4286 9.14286 95.4286 12C95.4286 14.8571 93.0286 17.1429 90.2857 17.1429ZM114.286 9.37143L120 0H128L117.714 16.9143V24H110.857V16.9143L100.457 0H108.457L114.286 9.37143ZM31.6572 0L20.6858 24H28.2287L29.7144 20.8L30.1715 19.8857C31.7715 20.8 33.4858 21.3714 35.4286 21.3714C37.3715 21.3714 39.2001 20.8 40.6858 19.8857L41.1429 20.8L42.6287 24H50.1715L39.2001 0H31.6572ZM35.4286 14.4C34.5144 14.4 33.7144 14.0571 33.0287 13.3714L35.4286 8.11429L37.8286 13.3714C37.1429 14.0571 36.3429 14.4 35.4286 14.4ZM57.7143 0L68 12.9143V0H74.8572V24H68H67.8857L57.7143 10.9714V24H50.8572V0H57.7143Z" fill="#18181A"/>
</svg>
