<svg width="20" height="20" viewBox="0 0 20 20" fill="none" xmlns="http://www.w3.org/2000/svg">
<path d="M12.2242 14.7867C11.7534 14.6733 11.4034 14.5758 11.0917 14.4708C10.8818 14.4002 10.6523 14.4159 10.4539 14.5144C10.2556 14.613 10.1044 14.7863 10.0338 14.9962C9.96319 15.2062 9.97888 15.4356 10.0774 15.634C10.1759 15.8324 10.3493 15.9835 10.5592 16.0542C10.9209 16.1758 11.3142 16.2858 11.8367 16.41C11.9445 16.4397 12.0572 16.4474 12.1681 16.4326C12.2789 16.4179 12.3856 16.381 12.4819 16.3241C12.5782 16.2672 12.6621 16.1915 12.7285 16.1016C12.7949 16.0116 12.8425 15.9092 12.8685 15.8005C12.8946 15.6917 12.8984 15.5788 12.8799 15.4685C12.8614 15.3583 12.8208 15.2528 12.7607 15.1586C12.7006 15.0643 12.6221 14.983 12.5299 14.9197C12.4378 14.8564 12.3338 14.8123 12.2242 14.79V14.7867Z" fill="#8B8B8C"/>
<path d="M8.24999 11.9166C8.20283 11.8155 8.13584 11.7248 8.053 11.6501C7.97015 11.5753 7.87314 11.518 7.76771 11.4814C7.66227 11.4449 7.55057 11.4298 7.43923 11.4373C7.32789 11.4447 7.21917 11.4744 7.11953 11.5247C7.01989 11.5749 6.93136 11.6446 6.85918 11.7297C6.787 11.8148 6.73265 11.9136 6.69935 12.0201C6.66605 12.1266 6.65448 12.2387 6.66532 12.3498C6.67617 12.4608 6.70921 12.5686 6.76249 12.6666C6.9715 13.0847 7.21836 13.4827 7.49999 13.8558C7.56533 13.9452 7.64784 14.0207 7.74271 14.0779C7.83757 14.1351 7.94289 14.1728 8.05249 14.1888C8.16209 14.2048 8.27378 14.1988 8.38103 14.1711C8.48829 14.1434 8.58895 14.0947 8.67713 14.0276C8.76531 13.9606 8.83925 13.8767 8.89462 13.7808C8.94999 13.6848 8.98568 13.5788 8.9996 13.4689C9.01352 13.359 9.0054 13.2475 8.9757 13.1408C8.94601 13.0341 8.89534 12.9343 8.82665 12.8474C8.60681 12.5552 8.4138 12.2436 8.24999 11.9166Z" fill="#8B8B8C"/>
<path d="M16.8434 16.4933C16.4599 16.1763 16.032 15.9172 15.5734 15.7242C15.4726 15.6764 15.3632 15.6494 15.2517 15.6447C15.1402 15.64 15.0289 15.6577 14.9244 15.6968C14.8199 15.736 14.7243 15.7957 14.6433 15.8725C14.5623 15.9492 14.4976 16.0415 14.4529 16.1438C14.4083 16.246 14.3846 16.3562 14.3834 16.4678C14.3821 16.5794 14.4032 16.6901 14.4456 16.7933C14.4879 16.8966 14.5505 16.9903 14.6298 17.0689C14.709 17.1475 14.8032 17.2093 14.9068 17.2508C15.2174 17.3802 15.5077 17.5539 15.7684 17.7667C15.9373 17.9093 16.1559 17.9791 16.3762 17.9606C16.5965 17.942 16.8004 17.8368 16.943 17.6679C17.0857 17.4991 17.1554 17.2804 17.1369 17.0602C17.1184 16.8399 17.0131 16.636 16.8443 16.4933H16.8434Z" fill="#8B8B8C"/>
<path d="M2.89493 11.1183C2.86063 11.0423 2.80511 10.9777 2.73505 10.9325C2.66498 10.8872 2.58334 10.8632 2.49993 10.8632C2.41652 10.8632 2.33488 10.8872 2.26481 10.9325C2.19474 10.9777 2.13923 11.0423 2.10493 11.1183L0.0215946 17.3683C0.000742836 17.4309 -0.00494168 17.4976 0.005009 17.5628C0.0149597 17.628 0.040261 17.69 0.07883 17.7435C0.117399 17.797 0.168133 17.8407 0.226855 17.8708C0.285577 17.9009 0.350608 17.9166 0.416595 17.9166H1.24993C1.36043 17.9166 1.46642 17.9605 1.54456 18.0387C1.6227 18.1168 1.66659 18.2228 1.66659 18.3333V19.1666C1.66659 19.3876 1.75439 19.5996 1.91067 19.7559C2.06695 19.9122 2.27891 20 2.49993 20C2.72094 20 2.9329 19.9122 3.08918 19.7559C3.24546 19.5996 3.33326 19.3876 3.33326 19.1666V18.3333C3.33326 18.2228 3.37716 18.1168 3.4553 18.0387C3.53344 17.9605 3.63942 17.9166 3.74993 17.9166H4.58326C4.64925 17.9166 4.71428 17.9009 4.773 17.8708C4.83172 17.8407 4.88246 17.797 4.92103 17.7435C4.95959 17.69 4.9849 17.628 4.99485 17.5628C5.0048 17.4976 4.99911 17.4309 4.97826 17.3683L2.89493 11.1183Z" fill="#8B8B8C"/>
<path d="M19.9783 11.535L17.8949 5.28505C17.8606 5.20901 17.8051 5.1445 17.735 5.09924C17.665 5.05398 17.5833 5.02991 17.4999 5.02991C17.4165 5.02991 17.3349 5.05398 17.2648 5.09924C17.1947 5.1445 17.1392 5.20901 17.1049 5.28505L15.0216 11.535C15.0007 11.5977 14.9951 11.6643 15.005 11.7295C15.015 11.7948 15.0403 11.8567 15.0788 11.9103C15.1174 11.9638 15.1681 12.0074 15.2269 12.0375C15.2856 12.0676 15.3506 12.0833 15.4166 12.0834H16.2499C16.3604 12.0834 16.4664 12.1273 16.5446 12.2054C16.6227 12.2836 16.6666 12.3895 16.6666 12.5V13.3334C16.6666 13.5544 16.7544 13.7664 16.9107 13.9226C17.067 14.0789 17.2789 14.1667 17.4999 14.1667C17.7209 14.1667 17.9329 14.0789 18.0892 13.9226C18.2455 13.7664 18.3333 13.5544 18.3333 13.3334V12.5C18.3333 12.3895 18.3772 12.2836 18.4553 12.2054C18.5334 12.1273 18.6394 12.0834 18.7499 12.0834H19.5833C19.6492 12.0833 19.7143 12.0676 19.773 12.0375C19.8317 12.0074 19.8825 11.9638 19.921 11.9103C19.9596 11.8567 19.9849 11.7948 19.9948 11.7295C20.0048 11.6643 19.9991 11.5977 19.9783 11.535Z" fill="#8B8B8C"/>
<path d="M11.0701 4.28497C10.9906 4.12386 10.8674 3.98831 10.7146 3.89373C10.5618 3.79915 10.3856 3.74934 10.2059 3.74997C10.0441 3.74492 9.88383 3.78282 9.74141 3.85981C9.59899 3.93681 9.4795 4.05015 9.39509 4.1883C9.37525 4.21961 9.34738 4.24504 9.31438 4.26193C9.28138 4.27881 9.24446 4.28656 9.20746 4.28434C9.17045 4.28213 9.13472 4.27005 9.10396 4.24935C9.07321 4.22865 9.04857 4.20009 9.03259 4.16664L7.49259 0.916638C7.36151 0.639271 7.15292 0.4058 6.892 0.244435C6.63109 0.0830698 6.32903 0.000716776 6.02232 0.00732688C5.71561 0.013937 5.41738 0.109227 5.16366 0.281684C4.90995 0.45414 4.7116 0.696382 4.59259 0.979138L1.50926 8.3058C1.47052 8.40033 1.45558 8.50293 1.46574 8.60458C1.47591 8.70623 1.51087 8.80383 1.56755 8.88882C1.62424 8.97381 1.70092 9.04359 1.79086 9.09202C1.88081 9.14046 1.98127 9.16608 2.08343 9.16664H12.5001C12.6067 9.16671 12.7116 9.1395 12.8047 9.0876C12.8978 9.03571 12.9761 8.96085 13.0322 8.87015C13.0882 8.77945 13.1201 8.67593 13.1249 8.56942C13.1296 8.46291 13.107 8.35696 13.0593 8.26164L11.0701 4.28497ZM6.90343 2.81997C6.88457 2.84953 6.85858 2.87387 6.82786 2.89077C6.79713 2.90766 6.76265 2.91655 6.72759 2.91664H5.44343C5.40909 2.91658 5.37531 2.90804 5.34507 2.89177C5.31484 2.87551 5.28909 2.85202 5.27012 2.82341C5.25115 2.79479 5.23955 2.76193 5.23635 2.72774C5.23314 2.69356 5.23844 2.65911 5.25176 2.62747L5.74509 1.4608C5.77439 1.40492 5.81816 1.35793 5.87182 1.32473C5.92548 1.29153 5.98706 1.27334 6.05015 1.27206C6.11323 1.27079 6.17551 1.28647 6.23047 1.31747C6.28542 1.34847 6.33105 1.39365 6.36259 1.4483L6.91676 2.61914C6.93202 2.65078 6.93911 2.68574 6.93736 2.72083C6.93561 2.75592 6.92509 2.79 6.90676 2.81997H6.90343Z" fill="#8B8B8C"/>
</svg>
