<svg width="16" height="24" viewBox="0 0 16 24" fill="none" xmlns="http://www.w3.org/2000/svg">
<path d="M15.7499 10C15.7491 9.43821 15.5385 8.89697 15.1592 8.48253C14.7799 8.0681 14.2594 7.81039 13.6999 7.76C13.6024 7.75166 13.5095 7.7149 13.4327 7.65429C13.3559 7.59368 13.2986 7.51187 13.2679 7.419C12.9786 6.6299 12.4592 5.94574 11.7769 5.455C11.3117 5.12861 10.9461 4.67967 10.7206 4.15802C10.4952 3.63638 10.4188 3.06246 10.4999 2.5C10.4999 1.83696 10.2365 1.20107 9.76764 0.732233C9.2988 0.263392 8.66292 0 7.99988 0C7.33684 0 6.70095 0.263392 6.23211 0.732233C5.76327 1.20107 5.49988 1.83696 5.49988 2.5C5.58108 3.06257 5.50462 3.63663 5.27899 4.15833C5.05336 4.68003 4.68742 5.1289 4.22188 5.455C3.53995 5.94504 3.02087 6.62855 2.73188 7.417C2.70103 7.50954 2.64379 7.59103 2.56721 7.65144C2.49063 7.71185 2.39805 7.74855 2.30088 7.757C1.83478 7.79876 1.39329 7.98474 1.03781 8.28907C0.682324 8.59341 0.430528 9.00097 0.317445 9.45507C0.204362 9.90916 0.235613 10.3872 0.406851 10.8227C0.578089 11.2582 0.8808 11.6295 1.27288 11.885C1.34203 11.9301 1.39895 11.9915 1.43856 12.064C1.47817 12.1364 1.49923 12.2175 1.49988 12.3V21C1.49988 21.7956 1.81595 22.5587 2.37856 23.1213C2.94117 23.6839 3.70423 24 4.49988 24H11.4999C12.2955 24 13.0586 23.6839 13.6212 23.1213C14.1838 22.5587 14.4999 21.7956 14.4999 21V12.3C14.4999 12.2168 14.5206 12.1349 14.5602 12.0617C14.5999 11.9886 14.6572 11.9264 14.7269 11.881C15.0402 11.6771 15.2978 11.3983 15.4764 11.0699C15.655 10.7415 15.749 10.3738 15.7499 10ZM5.78388 7.75C5.69524 7.7502 5.60869 7.72306 5.53603 7.67228C5.46337 7.6215 5.40814 7.54956 5.37785 7.46625C5.34757 7.38294 5.34371 7.29232 5.3668 7.20674C5.38989 7.12115 5.4388 7.04477 5.50688 6.988C6.19761 6.47503 6.74406 5.79227 7.09325 5.00594C7.44243 4.21962 7.58251 3.3564 7.49988 2.5C7.49988 2.36739 7.55256 2.24021 7.64632 2.14645C7.74009 2.05268 7.86727 2 7.99988 2C8.13249 2 8.25966 2.05268 8.35343 2.14645C8.4472 2.24021 8.49988 2.36739 8.49988 2.5C8.41743 3.35624 8.55759 4.21925 8.90677 5.00539C9.25595 5.79153 9.8023 6.47412 10.4929 6.987C10.5608 7.044 10.6096 7.12053 10.6326 7.20621C10.6555 7.29189 10.6515 7.38255 10.6212 7.46589C10.5908 7.54923 10.5355 7.6212 10.4628 7.67203C10.3901 7.72286 10.3036 7.75008 10.2149 7.75H5.78388ZM12.4999 21C12.4999 21.2652 12.3945 21.5196 12.207 21.7071C12.0194 21.8946 11.7651 22 11.4999 22H4.49988C4.23466 22 3.98031 21.8946 3.79277 21.7071C3.60524 21.5196 3.49988 21.2652 3.49988 21V13C3.49988 12.8674 3.55256 12.7402 3.64632 12.6464C3.74009 12.5527 3.86727 12.5 3.99988 12.5H11.9999C12.1325 12.5 12.2597 12.5527 12.3534 12.6464C12.4472 12.7402 12.4999 12.8674 12.4999 13V14C12.4999 14.1326 12.4472 14.2598 12.3534 14.3536C12.2597 14.4473 12.1325 14.5 11.9999 14.5H10.4999C10.301 14.5 10.1102 14.579 9.96955 14.7197C9.8289 14.8603 9.74988 15.0511 9.74988 15.25C9.74988 15.4489 9.8289 15.6397 9.96955 15.7803C10.1102 15.921 10.301 16 10.4999 16H11.9999C12.1325 16 12.2597 16.0527 12.3534 16.1464C12.4472 16.2402 12.4999 16.3674 12.4999 16.5V17.5C12.4999 17.6326 12.4472 17.7598 12.3534 17.8536C12.2597 17.9473 12.1325 18 11.9999 18H10.4999C10.301 18 10.1102 18.079 9.96955 18.2197C9.8289 18.3603 9.74988 18.5511 9.74988 18.75C9.74988 18.9489 9.8289 19.1397 9.96955 19.2803C10.1102 19.421 10.301 19.5 10.4999 19.5H11.9999C12.1325 19.5 12.2597 19.5527 12.3534 19.6464C12.4472 19.7402 12.4999 19.8674 12.4999 20V21Z" fill="#8B8B8C"/>
</svg>
