<svg width="20" height="20" viewBox="0 0 20 20" fill="none" xmlns="http://www.w3.org/2000/svg">
<path d="M18.6401 7.08333H18.2601C18.2132 7.0836 18.1676 7.0679 18.1308 7.03883C18.094 7.00975 18.0682 6.96902 18.0576 6.92333C17.623 5.22642 16.5634 3.75633 15.0909 2.8075C15.0534 2.78251 15.025 2.74601 15.0099 2.70348C14.9949 2.66095 14.9941 2.6147 15.0076 2.57166C15.1377 2.17079 15.367 1.80932 15.6743 1.52083C15.7825 1.41859 15.8614 1.28922 15.9026 1.14618C15.9439 1.00314 15.9462 0.851643 15.9091 0.707453C15.872 0.563262 15.7969 0.431642 15.6917 0.326278C15.5866 0.220915 15.4551 0.145657 15.3109 0.108331C14.6721 -0.0580595 13.9983 -0.0307525 13.3751 0.186781C12.7519 0.404314 12.2074 0.802249 11.8109 1.33C11.7877 1.36077 11.7564 1.38448 11.7205 1.39847C11.6846 1.41245 11.6455 1.41615 11.6076 1.40916C10.3156 1.16152 8.98572 1.19055 7.70573 1.49435C6.42574 1.79815 5.22469 2.36982 4.18176 3.17166C2.96059 4.1122 2.09523 5.43976 1.72759 6.93666C1.72062 6.96891 1.72143 7.00236 1.72997 7.03423C1.7385 7.0661 1.75452 7.09547 1.77668 7.11992C1.79884 7.14436 1.82651 7.16316 1.85739 7.17477C1.88828 7.18638 1.92148 7.19046 1.95426 7.18666C2.72578 7.10733 3.50125 7.07282 4.27676 7.08333C5.75843 7.08333 9.69343 7.08333 9.69343 9.16666V15.2033C9.69342 15.2584 9.71526 15.3113 9.75415 15.3504C9.79304 15.3894 9.84582 15.4114 9.90092 15.4117C10.8179 15.4148 11.7301 15.2811 12.6076 15.015C12.6339 15.0071 12.6615 15.0046 12.6888 15.0074C12.7162 15.0103 12.7426 15.0185 12.7668 15.0317C12.8152 15.0586 12.8512 15.1035 12.8668 15.1567L13.2726 16.56C13.3479 16.8201 13.5056 17.0487 13.722 17.2115C13.9384 17.3743 14.2018 17.4623 14.4726 17.4625C14.5905 17.4626 14.7078 17.4458 14.8209 17.4125C15.1391 17.3202 15.4076 17.1053 15.5674 16.8152C15.7273 16.525 15.7654 16.1833 15.6734 15.865L15.1334 14C15.1212 13.9584 15.1223 13.9141 15.1365 13.8732C15.1507 13.8323 15.1773 13.7968 15.2126 13.7717C16.1219 13.1427 16.8776 12.3166 17.4234 11.355C17.4415 11.3225 17.468 11.2953 17.5001 11.2764C17.5321 11.2575 17.5687 11.2476 17.6059 11.2475H18.6401C18.9716 11.2475 19.2896 11.1158 19.524 10.8814C19.7584 10.647 19.8901 10.329 19.8901 9.9975V8.33333C19.8901 8.00181 19.7584 7.68387 19.524 7.44945C19.2896 7.21503 18.9716 7.08333 18.6401 7.08333ZM14.0568 7.08333C14.0568 6.91851 14.1056 6.7574 14.1972 6.62036C14.2888 6.48331 14.4189 6.3765 14.5712 6.31343C14.7235 6.25036 14.891 6.23386 15.0527 6.26601C15.2143 6.29816 15.3628 6.37753 15.4793 6.49408C15.5959 6.61062 15.6753 6.7591 15.7074 6.92076C15.7396 7.08241 15.7231 7.24996 15.66 7.40223C15.5969 7.55451 15.4901 7.68465 15.3531 7.77622C15.216 7.86779 15.0549 7.91666 14.8901 7.91666C14.6691 7.91666 14.4571 7.82887 14.3008 7.67259C14.1446 7.51631 14.0568 7.30434 14.0568 7.08333ZM6.51509 5.5C6.38251 5.59933 6.21595 5.64203 6.05193 5.61876C5.88791 5.59548 5.73981 5.50812 5.64009 5.37583C5.59067 5.31019 5.55468 5.23546 5.53417 5.1559C5.51367 5.07634 5.50905 4.99352 5.52058 4.91217C5.53211 4.83082 5.55957 4.75255 5.60138 4.68182C5.6432 4.6111 5.69854 4.54931 5.76426 4.5C7.07896 3.51068 8.7061 3.02817 10.3476 3.14083C10.4297 3.14612 10.51 3.16759 10.5838 3.20399C10.6577 3.2404 10.7236 3.29103 10.7778 3.35297C10.832 3.41492 10.8734 3.48696 10.8997 3.56496C10.926 3.64296 10.9366 3.72538 10.9309 3.8075C10.9169 3.9721 10.8396 4.12484 10.7152 4.23363C10.5909 4.34241 10.4293 4.39876 10.2643 4.39083C8.92225 4.30163 7.59256 4.69501 6.51509 5.5Z" fill="#8B8B8C"/>
<path d="M8.33334 13.0783C8.36675 13.0605 8.3947 13.034 8.41422 13.0015C8.43374 12.9691 8.44409 12.932 8.44417 12.8941V10.9166C8.4442 10.8833 8.43623 10.8505 8.42094 10.8209C8.40565 10.7913 8.38349 10.7658 8.3563 10.7465C8.32912 10.7272 8.29771 10.7148 8.26472 10.7101C8.23172 10.7055 8.1981 10.7089 8.16667 10.7199C6.90439 11.0914 5.59313 11.2695 4.27751 11.2483C2.96216 11.2695 1.65118 11.0913 0.389173 10.7199C0.357698 10.7089 0.324043 10.7056 0.291014 10.7102C0.257985 10.7148 0.22654 10.7273 0.199302 10.7465C0.172064 10.7658 0.149824 10.7912 0.134435 10.8208C0.119047 10.8504 0.110957 10.8833 0.11084 10.9166V12.8949C0.111031 12.933 0.121511 12.9703 0.14117 13.0028C0.160829 13.0354 0.188934 13.0621 0.222507 13.0799C1.51224 13.5849 2.894 13.8121 4.27751 13.7466C5.66155 13.814 7.04408 13.5861 8.33334 13.0783Z" fill="#8B8B8C"/>
<path d="M4.27677 17.9167C2.96142 17.9379 1.65045 17.7598 0.388441 17.3884C0.356966 17.3773 0.32331 17.374 0.290281 17.3786C0.257252 17.3832 0.225807 17.3957 0.19857 17.4149C0.171332 17.4342 0.149091 17.4597 0.133703 17.4892C0.118314 17.5188 0.110224 17.5517 0.110107 17.585V19.1667C0.110107 19.6284 1.97594 20 4.27677 20C6.57761 20 8.44344 19.6284 8.44344 19.1667V17.5834C8.44347 17.55 8.4355 17.5172 8.42021 17.4876C8.40492 17.458 8.38275 17.4325 8.35557 17.4132C8.32839 17.394 8.29698 17.3815 8.26399 17.3769C8.23099 17.3723 8.19737 17.3756 8.16594 17.3867C6.90375 17.7587 5.59249 17.9374 4.27677 17.9167Z" fill="#8B8B8C"/>
<path d="M0.110107 9.16671V9.56337C0.110298 9.60142 0.120779 9.6387 0.140438 9.67127C0.160097 9.70384 0.188202 9.73048 0.221774 9.74837C1.51151 10.2533 2.89326 10.4805 4.27677 10.415C5.66121 10.482 7.04405 10.2536 8.33344 9.74504C8.36685 9.72725 8.3948 9.70072 8.41432 9.66828C8.43384 9.63585 8.44419 9.59873 8.44427 9.56087V9.16671C8.44427 8.70754 6.57927 8.33337 4.27761 8.33337C1.97594 8.33337 0.110107 8.70754 0.110107 9.16671Z" fill="#8B8B8C"/>
<path d="M8.44344 14.25C8.44347 14.2167 8.4355 14.1838 8.42021 14.1542C8.40492 14.1246 8.38275 14.0991 8.35557 14.0799C8.32839 14.0606 8.29698 14.0481 8.26399 14.0435C8.23099 14.0389 8.19737 14.0423 8.16594 14.0533C6.90366 14.4248 5.5924 14.6029 4.27677 14.5817C2.96142 14.6028 1.65045 14.4247 0.388441 14.0533C0.356966 14.0423 0.32331 14.0389 0.290281 14.0436C0.257252 14.0482 0.225807 14.0606 0.19857 14.0799C0.171332 14.0991 0.149091 14.1246 0.133703 14.1542C0.118314 14.1838 0.110224 14.2166 0.110107 14.25V16.2283C0.110298 16.2664 0.120779 16.3036 0.140438 16.3362C0.160097 16.3688 0.188202 16.3954 0.221774 16.4133C1.51151 16.9183 2.89326 17.1454 4.27677 17.08C5.66109 17.1474 7.04392 16.9196 8.33344 16.4117C8.36685 16.3939 8.3948 16.3673 8.41432 16.3349C8.43384 16.3025 8.44419 16.2653 8.44427 16.2275L8.44344 14.25Z" fill="#8B8B8C"/>
</svg>
