<svg width="19" height="16" viewBox="0 0 19 16" fill="none" xmlns="http://www.w3.org/2000/svg">
<path fill-rule="evenodd" clip-rule="evenodd" d="M18.0875 2.45636C17.4046 2.76668 16.698 2.95765 15.9679 3.02926C16.7451 2.55184 17.2868 1.85958 17.593 0.95247C16.8629 1.40603 16.0621 1.71635 15.1907 1.88345C14.5077 1.07182 13.6128 0.666016 12.5058 0.666016C11.4931 0.666016 10.6276 1.03602 9.90929 1.77603C9.19097 2.51604 8.83181 3.39926 8.83181 4.42573C8.83181 4.80767 8.85536 5.09412 8.90246 5.28509C5.7701 5.14187 3.22657 3.82896 1.27178 1.34634C0.942058 1.84764 0.777199 2.48022 0.777199 3.24411C0.777199 4.60477 1.31888 5.64316 2.40225 6.3593C1.71926 6.31155 1.1658 6.15639 0.741872 5.89381V5.96542C0.741872 6.87253 1.02449 7.67221 1.58973 8.36448C2.15496 9.05675 2.8615 9.48642 3.70936 9.65352C3.4974 9.72514 3.16768 9.76094 2.7202 9.76094C2.39048 9.76094 2.15496 9.74901 2.01365 9.72514C2.24917 10.4651 2.68487 11.0798 3.32076 11.5692C3.95665 12.0585 4.67497 12.3152 5.47572 12.339C4.13328 13.3894 2.60245 13.9145 0.883181 13.9145C0.482804 13.9145 0.188413 13.9026 0 13.8787C1.76637 15.0007 3.66225 15.5616 5.68769 15.5616C7.31275 15.5616 8.81414 15.2394 10.1919 14.5949C11.5697 13.9503 12.6825 13.1089 13.5303 12.0705C14.3782 11.0321 15.0376 9.89224 15.5087 8.65093C15.9797 7.40962 16.2152 6.1564 16.2152 4.89122V4.38992C16.9218 3.86475 17.5459 3.22024 18.0875 2.45636Z" fill="white"/>
</svg>
