<svg width="31" height="30" viewBox="0 0 31 30" fill="none" xmlns="http://www.w3.org/2000/svg">
<path fill-rule="evenodd" clip-rule="evenodd" d="M20.3685 13.0941C20.6026 11.8812 20.7252 10.6286 20.7252 9.34736V0.555405H1.07257V29C5.8316 29 10.1955 27.3084 13.5959 24.4937C16.9883 26.7537 22.428 28.902 29 27.7071C27.1899 26.9313 20.208 22.2767 20.4666 12.9676C20.4352 13.0107 20.4025 13.0529 20.3685 13.0941Z" fill="#F3F7F8"/>
<path d="M20.3685 13.0941L20.6791 13.3507L19.9728 13.0177L20.3685 13.0941ZM20.7252 0.555405V0.152479H21.1281V0.555405H20.7252ZM1.07257 0.555405H0.669645V0.152479H1.07257V0.555405ZM1.07257 29V29.4029H0.669645V29H1.07257ZM13.5959 24.4937L13.339 24.1833L13.5699 23.9922L13.8193 24.1584L13.5959 24.4937ZM29 27.7071L29.1587 27.3367L30.3891 27.864L29.0721 28.1035L29 27.7071ZM20.4666 12.9676L20.1408 12.7306L20.9055 11.6791L20.8694 12.9788L20.4666 12.9676ZM21.1281 9.34736C21.1281 10.6544 21.003 11.9326 20.7641 13.1705L19.9728 13.0177C20.2021 11.8299 20.3223 10.6028 20.3223 9.34736H21.1281ZM21.1281 0.555405V9.34736H20.3223V0.555405H21.1281ZM1.07257 0.152479H20.7252V0.95833H1.07257V0.152479ZM0.669645 29V0.555405H1.4755V29H0.669645ZM13.8529 24.8041C10.3829 27.6764 5.92882 29.4029 1.07257 29.4029V28.5971C5.73438 28.5971 10.0082 26.9404 13.339 24.1833L13.8529 24.8041ZM29.0721 28.1035C22.3717 29.3217 16.8273 27.1306 13.3725 24.8291L13.8193 24.1584C17.1493 26.3768 22.4842 28.4822 28.9279 27.3106L29.0721 28.1035ZM20.8694 12.9788C20.7432 17.5221 22.3816 20.9224 24.2722 23.2856C26.1707 25.6588 28.3154 26.9753 29.1587 27.3367L28.8413 28.0774C27.8745 27.6631 25.6232 26.2644 23.6429 23.789C21.6547 21.3038 19.9315 17.7222 20.0639 12.9564L20.8694 12.9788ZM20.0578 12.8375C20.0867 12.8026 20.1143 12.7669 20.1408 12.7306L20.7925 13.2046C20.7561 13.2545 20.7183 13.3033 20.6791 13.3507L20.0578 12.8375Z" fill="#F3F7F8"/>
</svg>
