<svg width="20" height="20" viewBox="0 0 20 20" fill="none" xmlns="http://www.w3.org/2000/svg">
<path d="M4.2999 2.625L6.6174 3.54583C6.66625 3.56503 6.71825 3.57492 6.77074 3.575C7.83927 3.57023 8.90303 3.71783 9.9299 4.01333C10.0082 4.03687 10.0916 4.03687 10.1699 4.01333C11.4717 3.64155 12.8293 3.50469 14.1791 3.60916C14.2423 3.61426 14.3059 3.60486 14.3649 3.58166L16.8499 2.59166C16.9616 2.54752 17.0583 2.47238 17.1287 2.37508C17.1991 2.27779 17.2403 2.16241 17.2473 2.04252C17.2543 1.92263 17.2269 1.80324 17.1683 1.69841C17.1097 1.59358 17.0224 1.50768 16.9166 1.45083C16.228 1.061 15.4477 0.862319 14.6565 0.875359C13.8653 0.888399 13.092 1.11269 12.4166 1.525C11.6837 1.94731 11.0935 2.57868 10.7216 3.33833C10.7048 3.37424 10.6781 3.40461 10.6447 3.42589C10.6113 3.44718 10.5725 3.45848 10.5328 3.45848C10.4932 3.45848 10.4544 3.44718 10.4209 3.42589C10.3875 3.40461 10.3608 3.37424 10.3441 3.33833C9.97944 2.59381 9.40503 1.97218 8.69157 1.55C8.02834 1.13638 7.26787 0.904751 6.48668 0.878418C5.70549 0.852086 4.93114 1.03198 4.24157 1.4C4.12643 1.45898 4.03072 1.54989 3.96589 1.66185C3.90106 1.77381 3.86985 1.90207 3.87601 2.03129C3.88216 2.16052 3.92541 2.28524 4.00059 2.39052C4.07576 2.49581 4.17968 2.57722 4.2999 2.625Z" fill="#8B8B8C"/>
<path d="M9.59995 9.54171H10.3008C10.4082 9.54182 10.5115 9.50045 10.5891 9.42623C10.6667 9.35201 10.7127 9.25068 10.7175 9.14338L10.7475 8.44755C10.7508 8.37102 10.7329 8.29507 10.6959 8.22803C10.6588 8.161 10.604 8.10547 10.5375 8.06755C10.45 8.01755 10.3658 7.96505 10.2875 7.91005C10.2186 7.86365 10.1375 7.83887 10.0545 7.83887C9.97154 7.83887 9.89043 7.86365 9.82162 7.91005C9.51537 8.11345 9.18891 8.28463 8.84745 8.42088C8.75914 8.45697 8.6859 8.52228 8.63995 8.60588L6.12245 13.1759C6.08596 13.2422 6.06821 13.3172 6.07111 13.3928C6.07401 13.4684 6.09744 13.5418 6.1389 13.6051C6.18037 13.6684 6.23828 13.7192 6.30644 13.7521C6.3746 13.785 6.45043 13.7987 6.52578 13.7917C7.26162 13.7225 7.89328 13.7084 8.30828 13.7084C8.89162 13.7084 9.47495 13.7359 10.0641 13.7917C10.1204 13.7968 10.1771 13.7905 10.2308 13.773C10.2845 13.7555 10.3341 13.7273 10.3766 13.69C10.419 13.6529 10.4534 13.6075 10.4778 13.5567C10.5021 13.5058 10.5159 13.4505 10.5183 13.3942L10.54 12.8942C10.5424 12.838 10.5335 12.7818 10.5137 12.7291C10.4938 12.6764 10.4635 12.6283 10.4246 12.5877C10.3856 12.547 10.3389 12.5147 10.2871 12.4926C10.2353 12.4705 10.1796 12.4592 10.1233 12.4592H9.18328C9.07278 12.4592 8.9668 12.4153 8.88866 12.3372C8.81052 12.259 8.76662 12.1531 8.76662 12.0425C8.76662 11.932 8.81052 11.8261 8.88866 11.7479C8.9668 11.6698 9.07278 11.6259 9.18328 11.6259H10.2025C10.3096 11.626 10.4126 11.5849 10.4902 11.511C10.5678 11.4371 10.614 11.3362 10.6191 11.2292L10.6383 10.8125C10.641 10.7562 10.6322 10.6998 10.6125 10.6469C10.5928 10.5941 10.5625 10.5457 10.5235 10.5049C10.4846 10.4641 10.4377 10.4316 10.3858 10.4094C10.3339 10.3872 10.2781 10.3758 10.2216 10.3759H9.59995C9.48944 10.3759 9.38346 10.332 9.30532 10.2538C9.22718 10.1757 9.18328 10.0697 9.18328 9.95921C9.18328 9.84871 9.22718 9.74273 9.30532 9.66459C9.38346 9.58645 9.48944 9.54255 9.59995 9.54255V9.54171Z" fill="#8B8B8C"/>
<path d="M8.30924 14.5416C4.84507 14.5416 0.970073 15.4875 0.480073 18.1408C0.457946 18.261 0.462542 18.3846 0.493535 18.5029C0.524529 18.6212 0.58116 18.7311 0.659413 18.8251C0.737666 18.919 0.835625 18.9945 0.946343 19.0464C1.05706 19.0982 1.17782 19.125 1.30007 19.125H15.5551C15.6414 19.125 15.7267 19.1072 15.8058 19.0726C15.8848 19.038 15.9558 18.9874 16.0143 18.9239C16.0728 18.8605 16.1175 18.7856 16.1456 18.7041C16.1737 18.6225 16.1846 18.536 16.1776 18.45C15.9476 15.5691 11.9617 14.5416 8.30924 14.5416Z" fill="#8B8B8C"/>
<path d="M19.4558 7.56501C17.5733 3.93001 12.5858 4.03001 10.1225 4.90918C10.0773 4.92583 10.0277 4.92583 9.9825 4.90918C7.51417 4.02835 2.52584 3.92835 0.643337 7.56585C0.591142 7.66587 0.564984 7.77743 0.567277 7.89023C0.569571 8.00303 0.600241 8.11343 0.656459 8.21125C0.712676 8.30907 0.792628 8.39115 0.888935 8.44992C0.985243 8.50869 1.0948 8.54226 1.2075 8.54751C1.555 8.56418 1.945 8.57501 2.36584 8.57501C4.44917 8.57501 8.5 8.30168 9.89584 6.76501C9.9155 6.74376 9.93934 6.72679 9.96587 6.71519C9.9924 6.70359 10.021 6.69761 10.05 6.69761C10.079 6.69761 10.1076 6.70359 10.1341 6.71519C10.1607 6.72679 10.1845 6.74376 10.2042 6.76501C11.5983 8.30085 15.6458 8.57501 17.7342 8.57501C18.1508 8.57501 18.545 8.56418 18.8917 8.54751C19.0045 8.54232 19.1142 8.50877 19.2106 8.44995C19.307 8.39114 19.387 8.30896 19.4433 8.21102C19.4995 8.11308 19.5301 8.00254 19.5323 7.88963C19.5345 7.77671 19.5082 7.66507 19.4558 7.56501Z" fill="#8B8B8C"/>
</svg>
