<svg width="69" height="279" viewBox="0 0 69 279" fill="none" xmlns="http://www.w3.org/2000/svg">
<path d="M7.33869 278.707C7.72922 279.098 8.36238 279.098 8.75291 278.707L15.1169 272.343C15.5074 271.953 15.5074 271.319 15.1169 270.929C14.7263 270.538 14.0932 270.538 13.7027 270.929L8.0458 276.586L2.38895 270.929C1.99842 270.538 1.36526 270.538 0.974734 270.929C0.584209 271.319 0.584209 271.953 0.974734 272.343L7.33869 278.707ZM3.87436 2.09253C4.42515 2.13312 4.90456 1.71952 4.94516 1.16873C4.98575 0.617943 4.57216 0.13853 4.02137 0.0979357L3.87436 2.09253ZM7.98129 0.570247C7.43621 0.481354 6.92227 0.85117 6.83338 1.39625C6.74448 1.94134 7.1143 2.45528 7.65938 2.54417L7.98129 0.570247ZM11.4181 3.31134C11.9546 3.44246 12.4958 3.11383 12.627 2.57734C12.7581 2.04084 12.4294 1.49964 11.893 1.36852L11.4181 3.31134ZM15.7208 2.45251C15.1951 2.28328 14.6317 2.57226 14.4625 3.09798C14.2933 3.62369 14.5822 4.18706 15.108 4.3563L15.7208 2.45251ZM18.7299 5.66086C19.2429 5.86543 19.8246 5.61541 20.0291 5.10241C20.2337 4.58941 19.9837 4.0077 19.4707 3.80313L18.7299 5.66086ZM23.1045 5.3919C22.6059 5.1544 22.0092 5.36608 21.7717 5.86469C21.5342 6.36331 21.7459 6.96004 22.2445 7.19753L23.1045 5.3919ZM25.6636 8.96146C26.1462 9.22999 26.7551 9.05644 27.0237 8.57383C27.2922 8.09123 27.1187 7.48231 26.636 7.21378L25.6636 8.96146ZM30.0503 9.25449C29.5852 8.95671 28.9667 9.09238 28.6689 9.55751C28.3712 10.0226 28.5068 10.6411 28.972 10.9389L30.0503 9.25449ZM32.1511 13.1122C32.5975 13.4374 33.223 13.3392 33.5482 12.8928C33.8734 12.4464 33.7751 11.8209 33.3288 11.4957L32.1511 13.1122ZM36.4617 13.9224C36.0351 13.5716 35.4049 13.633 35.0541 14.0596C34.7033 14.4862 34.7648 15.1163 35.1913 15.4671L36.4617 13.9224ZM38.0931 17.9965C38.4989 18.3711 39.1315 18.3458 39.5061 17.94C39.8807 17.5342 39.8554 16.9015 39.4496 16.5269L38.0931 17.9965ZM42.2858 19.2955C41.9014 18.899 41.2683 18.8891 40.8717 19.2734C40.4751 19.6578 40.4653 20.2909 40.8496 20.6875L42.2858 19.2955ZM43.4564 23.5271C43.8188 23.9438 44.4505 23.9878 44.8672 23.6253C45.2839 23.2629 45.3279 22.6312 44.9654 22.2145L43.4564 23.5271ZM47.4858 25.2704C47.1456 24.8354 46.5171 24.7586 46.0821 25.0988C45.647 25.4391 45.5702 26.0676 45.9105 26.5026L47.4858 25.2704ZM48.2109 29.6018C48.5289 30.0534 49.1527 30.1616 49.6043 29.8436C50.0558 29.5256 50.164 28.9018 49.846 28.4502L48.2109 29.6018ZM52.0468 31.742C51.7509 31.2756 51.133 31.1374 50.6667 31.4333C50.2003 31.7292 50.0622 32.3471 50.3581 32.8134L52.0468 31.742ZM52.354 36.1271C52.628 36.6066 53.2389 36.7732 53.7184 36.4991C54.1979 36.2251 54.3644 35.6142 54.0904 35.1347L52.354 36.1271ZM55.9803 38.6191C55.7277 38.128 55.1247 37.9347 54.6336 38.1873C54.1425 38.4399 53.9492 39.0428 54.2018 39.534L55.9803 38.6191ZM55.8928 42.9991C56.1246 43.5004 56.7189 43.7188 57.2202 43.4869C57.7214 43.255 57.9398 42.6607 57.708 42.1595L55.8928 42.9991ZM59.2899 45.7676C59.0782 45.2575 58.493 45.0157 57.9829 45.2274C57.4728 45.4392 57.231 46.0243 57.4427 46.5344L59.2899 45.7676ZM58.8575 50.1355C59.0498 50.6532 59.6254 50.9171 60.1431 50.7248C60.6608 50.5325 60.9247 49.9569 60.7324 49.4392L58.8575 50.1355ZM62.0416 53.1711C61.8681 52.6468 61.3024 52.3623 60.7781 52.5358C60.2538 52.7093 59.9694 53.275 60.1429 53.7994L62.0416 53.1711ZM61.2995 57.5081C61.455 58.0381 62.0107 58.3416 62.5406 58.1862C63.0706 58.0307 63.3741 57.475 63.2186 56.9451L61.2995 57.5081ZM64.2617 60.7259C64.1233 60.1913 63.5777 59.87 63.043 60.0084C62.5083 60.1468 62.1871 60.6924 62.3255 61.227L64.2617 60.7259ZM63.2394 64.9974C63.3614 65.5361 63.8969 65.8739 64.4356 65.7519C64.9742 65.63 65.312 65.0945 65.1901 64.5558L63.2394 64.9974ZM66.009 68.4374C65.9028 67.8954 65.3773 67.5421 64.8354 67.6483C64.2934 67.7545 63.9401 68.2799 64.0463 68.8219L66.009 68.4374ZM64.7348 72.6116C64.8262 73.1563 65.3418 73.5237 65.8864 73.4324C66.4311 73.341 66.7986 72.8254 66.7072 72.2807L64.7348 72.6116ZM67.3077 76.1733C67.2306 75.6264 66.7247 75.2456 66.1779 75.3228C65.631 75.3999 65.2502 75.9058 65.3274 76.4527L67.3077 76.1733ZM65.8239 80.3212C65.8875 80.8698 66.3837 81.263 66.9324 81.1995C67.481 81.1359 67.8742 80.6396 67.8106 80.091L65.8239 80.3212ZM68.2149 83.9791C68.1642 83.4292 67.6772 83.0245 67.1272 83.0753C66.5773 83.1261 66.1726 83.6131 66.2234 84.163L68.2149 83.9791ZM66.5393 88.0647C66.5777 88.6156 67.0555 89.0311 67.6065 88.9927C68.1574 88.9542 68.5729 88.4764 68.5344 87.9255L66.5393 88.0647ZM68.765 91.8238C68.7381 91.2722 68.2692 90.8468 67.7175 90.8737C67.1659 90.9005 66.7405 91.3695 66.7674 91.9211L68.765 91.8238ZM66.9175 95.819C66.9332 96.3711 67.3935 96.8059 67.9456 96.7901C68.4977 96.7744 68.9324 96.3141 68.9167 95.762L66.9175 95.819ZM68.9907 99.6834C68.9855 99.1311 68.5336 98.6876 67.9813 98.6928C67.4291 98.698 66.9856 99.1499 66.9908 99.7021L68.9907 99.6834ZM66.9913 103.726C66.9866 104.278 67.4305 104.729 67.9828 104.734C68.5351 104.739 68.9866 104.295 68.9913 103.743L66.9913 103.726ZM68.9222 107.758C68.9366 107.206 68.5008 106.746 67.9487 106.732C67.3966 106.717 66.9373 107.153 66.9229 107.705L68.9222 107.758ZM66.7843 111.623C66.7595 112.174 67.1867 112.642 67.7384 112.667C68.2901 112.691 68.7575 112.264 68.7823 111.712L66.7843 111.623ZM68.5594 115.75C68.5956 115.199 68.1783 114.723 67.6272 114.687C67.0761 114.651 66.6 115.068 66.5637 115.619L68.5594 115.75ZM66.2649 119.516C66.2166 120.066 66.6233 120.551 67.1735 120.599C67.7237 120.648 68.2089 120.241 68.2572 119.691L66.2649 119.516ZM67.8538 123.72C67.9157 123.171 67.5209 122.676 66.9721 122.614C66.4233 122.552 65.9283 122.947 65.8664 123.496L67.8538 123.72ZM65.3772 127.386C65.301 127.933 65.6827 128.438 66.2297 128.515C66.7767 128.591 67.2819 128.209 67.3581 127.662L65.3772 127.386ZM66.746 131.644C66.8378 131.099 66.4708 130.583 65.9262 130.491C65.3816 130.4 64.8657 130.767 64.7738 131.311L66.746 131.644ZM64.0578 135.193C63.949 135.734 64.2999 136.262 64.8413 136.37C65.3828 136.479 65.9099 136.128 66.0186 135.587L64.0578 135.193ZM65.1704 139.479C65.2971 138.941 64.964 138.403 64.4264 138.276C63.8889 138.149 63.3504 138.482 63.2237 139.02L65.1704 139.479ZM62.2421 142.874C62.0959 143.406 62.4092 143.957 62.9418 144.103C63.4744 144.249 64.0246 143.936 64.1708 143.403L62.2421 142.874ZM63.0391 147.24C63.2056 146.713 62.9137 146.151 62.3871 145.985C61.8605 145.818 61.2986 146.11 61.1321 146.637L63.0391 147.24ZM59.874 150.354C59.6862 150.873 59.9551 151.446 60.4745 151.634C60.9939 151.822 61.5671 151.553 61.7549 151.034L59.874 150.354ZM60.2994 154.807C60.5092 154.296 60.2652 153.712 59.7543 153.502C59.2434 153.292 58.6592 153.536 58.4493 154.047L60.2994 154.807ZM56.8761 157.652C56.6441 158.153 56.8624 158.747 57.3636 158.979C57.8649 159.211 58.4592 158.993 58.6912 158.492L56.8761 157.652ZM56.9275 162.094C57.1811 161.603 56.9891 161 56.4985 160.746C56.0079 160.493 55.4045 160.685 55.1509 161.175L56.9275 162.094ZM53.273 164.623C52.9986 165.103 53.1647 165.714 53.644 165.988C54.1233 166.262 54.7343 166.096 55.0087 165.617L53.273 164.623ZM52.9344 169.073C53.228 168.606 53.0869 167.988 52.6191 167.695C52.1513 167.401 51.5341 167.542 51.2405 168.01L52.9344 169.073ZM49.0803 171.312C48.7697 171.769 48.8881 172.391 49.3447 172.701C49.8014 173.012 50.4234 172.893 50.734 172.437L49.0803 171.312ZM48.4251 175.716C48.7499 175.269 48.6511 174.644 48.2045 174.319C47.7578 173.994 47.1324 174.093 46.8076 174.539L48.4251 175.716ZM44.4412 177.705C44.1053 178.144 44.1884 178.771 44.6268 179.107C45.0652 179.443 45.6929 179.36 46.0288 178.922L44.4412 177.705ZM43.5692 182.07C43.9127 181.638 43.8406 181.009 43.4081 180.665C42.9757 180.322 42.3466 180.394 42.0031 180.826L43.5692 182.07ZM39.5174 183.921C39.1699 184.35 39.2361 184.98 39.6653 185.328C40.0945 185.675 40.7242 185.609 41.0717 185.18L39.5174 183.921ZM38.5625 188.271C38.9104 187.842 38.8449 187.212 38.416 186.864C37.9871 186.516 37.3574 186.582 37.0094 187.011L38.5625 188.271ZM34.5053 190.116C34.1605 190.548 34.2307 191.177 34.6621 191.522C35.0936 191.866 35.7228 191.796 36.0676 191.365L34.5053 190.116ZM33.6154 194.478C33.9535 194.041 33.8736 193.413 33.4369 193.075C33.0003 192.737 32.3722 192.817 32.034 193.253L33.6154 194.478ZM29.6198 196.442C29.2916 196.886 29.3857 197.512 29.83 197.84C30.2742 198.169 30.9003 198.074 31.2285 197.63L29.6198 196.442ZM28.9279 200.837C29.2431 200.384 29.1309 199.761 28.6774 199.446C28.2239 199.13 27.6007 199.243 27.2856 199.696L28.9279 200.837ZM25.0517 203.028C24.7521 203.492 24.8854 204.11 25.3493 204.41C25.8133 204.71 26.4323 204.576 26.7319 204.112L25.0517 203.028ZM24.6545 207.465C24.9364 206.99 24.7798 206.377 24.3049 206.095C23.8299 205.813 23.2164 205.97 22.9346 206.445L24.6545 207.465ZM20.9461 209.954C20.6836 210.44 20.8648 211.046 21.3507 211.309C21.8366 211.571 22.4433 211.39 22.7058 210.904L20.9461 209.954ZM20.9103 214.398C21.1525 213.902 20.9465 213.303 20.4502 213.061C19.9538 212.819 19.3551 213.025 19.1129 213.521L20.9103 214.398ZM17.431 217.156C17.2094 217.662 17.4399 218.252 17.9458 218.473C18.4517 218.695 19.0414 218.464 19.263 217.959L17.431 217.156ZM17.7556 221.601C17.9564 221.087 17.7022 220.507 17.1877 220.306C16.6732 220.105 16.0934 220.359 15.8925 220.874L17.7556 221.601ZM14.4947 224.676C14.3143 225.198 14.5912 225.767 15.1131 225.947C15.6351 226.128 16.2045 225.851 16.3849 225.329L14.4947 224.676ZM15.1789 229.041C15.3399 228.512 15.0423 227.953 14.514 227.792C13.9857 227.631 13.4269 227.929 13.2658 228.457L15.1789 229.041ZM12.1621 232.321C12.0196 232.855 12.3367 233.403 12.8703 233.546C13.4039 233.688 13.952 233.371 14.0944 232.837L12.1621 232.321ZM13.135 236.688C13.2598 236.15 12.9248 235.612 12.3868 235.487C11.8488 235.363 11.3115 235.698 11.1867 236.236L13.135 236.688ZM10.3482 240.119C10.2397 240.66 10.5907 241.187 11.1323 241.296C11.6738 241.404 12.2007 241.053 12.3092 240.512L10.3482 240.119ZM11.5787 244.454C11.6716 243.91 11.3056 243.393 10.7612 243.3C10.2168 243.208 9.70011 243.574 9.60717 244.118L11.5787 244.454ZM8.99439 248.013C8.91549 248.559 9.29465 249.067 9.84127 249.145C10.3879 249.224 10.895 248.845 10.9739 248.299L8.99439 248.013ZM10.4507 252.271C10.5162 251.722 10.1248 251.225 9.57638 251.159C9.02799 251.094 8.53034 251.485 8.46484 252.034L10.4507 252.271ZM8.04055 255.958C7.98715 256.507 8.38948 256.996 8.93918 257.05C9.48887 257.103 9.97778 256.701 10.0312 256.151L8.04055 255.958ZM9.68482 260.159C9.72667 259.608 9.31416 259.128 8.76346 259.086C8.21277 259.044 7.73242 259.457 7.69057 260.007L9.68482 260.159ZM7.43013 263.928C7.39863 264.479 7.82009 264.952 8.37147 264.983C8.92286 265.015 9.39538 264.593 9.42687 264.042L7.43013 263.928ZM9.23361 268.072C9.25515 267.52 8.82524 267.055 8.27337 267.034C7.72151 267.012 7.25667 267.442 7.23513 267.994L9.23361 268.072ZM7.11408 271.917C7.10145 272.469 7.53882 272.927 8.09096 272.94C8.6431 272.952 9.10093 272.515 9.11356 271.963L7.11408 271.917ZM9.0534 275.954C9.05752 275.402 8.61316 274.95 8.0609 274.946C7.50863 274.942 7.05758 275.387 7.05345 275.939L9.0534 275.954ZM1.97678 1.99973C2.59124 2.014 3.22427 2.04461 3.87436 2.09253L4.02137 0.0979357C3.33869 0.0476206 2.67211 0.0153435 2.02322 0.000269711L1.97678 1.99973ZM7.65938 2.54417C8.87408 2.74227 10.1296 2.99643 11.4181 3.31134L11.893 1.36852C10.5546 1.04143 9.24803 0.776828 7.98129 0.570247L7.65938 2.54417ZM15.108 4.3563C16.2973 4.73916 17.5064 5.17295 18.7299 5.66086L19.4707 3.80313C18.205 3.29838 16.9532 2.84923 15.7208 2.45251L15.108 4.3563ZM22.2445 7.19753C23.378 7.73745 24.5191 8.32463 25.6636 8.96146L26.636 7.21378C25.4544 6.55631 24.2759 5.94982 23.1045 5.3919L22.2445 7.19753ZM28.972 10.9389C30.0332 11.6183 31.094 12.3421 32.1511 13.1122L33.3288 11.4957C32.239 10.7018 31.1451 9.95535 30.0503 9.25449L28.972 10.9389ZM35.1913 15.4671C36.1653 16.2681 37.1334 17.1107 38.0931 17.9965L39.4496 16.5269C38.4618 15.6151 37.4649 14.7474 36.4617 13.9224L35.1913 15.4671ZM40.8496 20.6875C41.7288 21.5945 42.5984 22.5406 43.4564 23.5271L44.9654 22.2145C44.0839 21.201 43.1899 20.2284 42.2858 19.2955L40.8496 20.6875ZM45.9105 26.5026C46.6898 27.499 47.4572 28.5317 48.2109 29.6018L49.846 28.4502C49.0732 27.3528 48.2858 26.2932 47.4858 25.2704L45.9105 26.5026ZM50.3581 32.8134C51.0373 33.884 51.7031 34.9883 52.354 36.1271L54.0904 35.1347C53.4243 33.9693 52.7427 32.8387 52.0468 31.742L50.3581 32.8134ZM54.2018 39.534C54.78 40.658 55.344 41.8129 55.8928 42.9991L57.708 42.1595C57.1476 40.9481 56.5713 39.7682 55.9803 38.6191L54.2018 39.534ZM57.4427 46.5344C57.9291 47.7062 58.4011 48.9064 58.8575 50.1355L60.7324 49.4392C60.2673 48.1867 59.7861 46.963 59.2899 45.7676L57.4427 46.5344ZM60.1429 53.7994C60.5432 55.0093 60.9291 56.2455 61.2995 57.5081L63.2186 56.9451C62.8418 55.6608 62.4492 54.4029 62.0416 53.1711L60.1429 53.7994ZM62.3255 61.227C62.6446 62.4599 62.9494 63.7166 63.2394 64.9974L65.1901 64.5558C64.8956 63.2553 64.5859 61.9788 64.2617 60.7259L62.3255 61.227ZM64.0463 68.8219C64.2895 70.0635 64.5192 71.3267 64.7348 72.6116L66.7072 72.2807C66.4887 70.9781 66.2558 69.6971 66.009 68.4374L64.0463 68.8219ZM65.3274 76.4527C65.5064 77.7219 65.6721 79.0113 65.8239 80.3212L67.8106 80.091C67.6569 78.7649 67.4892 77.4591 67.3077 76.1733L65.3274 76.4527ZM66.2234 84.163C66.3418 85.4448 66.4472 86.7453 66.5393 88.0647L68.5344 87.9255C68.4413 86.5913 68.3347 85.276 68.2149 83.9791L66.2234 84.163ZM66.7674 91.9211C66.8298 93.2032 66.88 94.5024 66.9175 95.819L68.9167 95.762C68.8788 94.4322 68.8281 93.1195 68.765 91.8238L66.7674 91.9211ZM66.9908 99.7021C66.9969 100.358 67 101.017 67 101.681H69C69 101.011 68.9969 100.345 68.9907 99.6834L66.9908 99.7021ZM67 101.681C67 102.369 66.9971 103.05 66.9913 103.726L68.9913 103.743C68.9971 103.062 69 102.374 69 101.681H67ZM66.9229 107.705C66.8881 109.036 66.8418 110.341 66.7843 111.623L68.7823 111.712C68.8404 110.418 68.8871 109.1 68.9222 107.758L66.9229 107.705ZM66.5637 115.619C66.4766 116.945 66.3768 118.243 66.2649 119.516L68.2572 119.691C68.3704 118.404 68.4713 117.09 68.5594 115.75L66.5637 115.619ZM65.8664 123.496C65.717 124.822 65.5537 126.118 65.3772 127.386L67.3581 127.662C67.5371 126.377 67.7025 125.063 67.8538 123.72L65.8664 123.496ZM64.7738 131.311C64.5501 132.637 64.3112 133.931 64.0578 135.193L66.0186 135.587C66.2762 134.304 66.5189 132.99 66.746 131.644L64.7738 131.311ZM63.2237 139.02C62.9128 140.339 62.5852 141.623 62.2421 142.874L64.1708 143.403C64.5204 142.129 64.854 140.822 65.1704 139.479L63.2237 139.02ZM61.1321 146.637C60.7293 147.911 60.3095 149.149 59.874 150.354L61.7549 151.034C62.1996 149.803 62.6281 148.54 63.0391 147.24L61.1321 146.637ZM58.4493 154.047C57.9415 155.283 57.4166 156.484 56.8761 157.652L58.6912 158.492C59.2438 157.298 59.7804 156.07 60.2994 154.807L58.4493 154.047ZM55.1509 161.175C54.5405 162.356 53.9139 163.504 53.273 164.623L55.0087 165.617C55.6632 164.474 56.3035 163.301 56.9275 162.094L55.1509 161.175ZM51.2405 168.01C50.5337 169.136 49.8129 170.235 49.0803 171.312L50.734 172.437C51.4794 171.341 52.2136 170.221 52.9344 169.073L51.2405 168.01ZM46.8076 174.539C46.0284 175.611 45.2388 176.664 44.4412 177.705L46.0288 178.922C46.835 177.869 47.6347 176.802 48.4251 175.716L46.8076 174.539ZM42.0031 180.826C41.1794 181.863 40.3502 182.893 39.5174 183.921L41.0717 185.18C41.9065 184.149 42.74 183.114 43.5692 182.07L42.0031 180.826ZM37.0094 187.011C36.1746 188.04 35.3387 189.073 34.5053 190.116L36.0676 191.365C36.8965 190.328 37.7288 189.298 38.5625 188.271L37.0094 187.011ZM32.034 193.253C31.224 194.3 30.4183 195.361 29.6198 196.442L31.2285 197.63C32.0167 196.563 32.8131 195.514 33.6154 194.478L32.034 193.253ZM27.2856 199.696C26.5313 200.782 25.7859 201.89 25.0517 203.028L26.7319 204.112C27.4528 202.996 28.1855 201.906 28.9279 200.837L27.2856 199.696ZM22.9346 206.445C22.2588 207.583 21.5954 208.752 20.9461 209.954L22.7058 210.904C23.3418 209.727 23.992 208.582 24.6545 207.465L22.9346 206.445ZM19.1129 213.521C18.5378 214.7 17.9767 215.91 17.431 217.156L19.263 217.959C19.7975 216.738 20.3471 215.552 20.9103 214.398L19.1129 213.521ZM15.8925 220.874C15.4113 222.106 14.9449 223.373 14.4947 224.676L16.3849 225.329C16.8266 224.051 17.2839 222.809 17.7556 221.601L15.8925 220.874ZM13.2658 228.457C12.8831 229.712 12.5149 231 12.1621 232.321L14.0944 232.837C14.4413 231.538 14.8031 230.273 15.1789 229.041L13.2658 228.457ZM11.1867 236.236C10.8935 237.5 10.6138 238.793 10.3482 240.119L12.3092 240.512C12.5709 239.206 12.8464 237.932 13.135 236.688L11.1867 236.236ZM9.60717 244.118C9.39032 245.388 9.18588 246.686 8.99439 248.013L10.9739 248.299C11.163 246.988 11.3647 245.708 11.5787 244.454L9.60717 244.118ZM8.46484 252.034C8.31173 253.316 8.17016 254.623 8.04055 255.958L10.0312 256.151C10.1594 254.831 10.2994 253.538 10.4507 252.271L8.46484 252.034ZM7.69057 260.007C7.59307 261.29 7.50614 262.597 7.43013 263.928L9.42687 264.042C9.50219 262.723 9.58828 261.429 9.68482 260.159L7.69057 260.007ZM7.23513 267.994C7.18493 269.28 7.14449 270.587 7.11408 271.917L9.11356 271.963C9.14373 270.644 9.18384 269.347 9.23361 268.072L7.23513 267.994ZM7.05345 275.939C7.04836 276.62 7.0458 277.307 7.0458 278H9.0458C9.0458 277.312 9.04834 276.63 9.0534 275.954L7.05345 275.939Z" fill="#D6E0E2"/>
</svg>
