<svg width="98" height="438" viewBox="0 0 98 438" fill="none" xmlns="http://www.w3.org/2000/svg">
<path d="M5.14167 118.613L4.16459 118.826L5.14167 118.613ZM74.1912 437.707C74.5817 438.098 75.2148 438.098 75.6054 437.707L81.9693 431.343C82.3599 430.953 82.3599 430.319 81.9693 429.929C81.5788 429.538 80.9456 429.538 80.5551 429.929L74.8983 435.586L69.2414 429.929C68.8509 429.538 68.2177 429.538 67.8272 429.929C67.4367 430.319 67.4367 430.953 67.8272 431.343L74.1912 437.707ZM75.8976 434.939C75.8972 434.386 75.4492 433.939 74.8969 433.939C74.3447 433.94 73.8972 434.388 73.8976 434.94L75.8976 434.939ZM73.8923 430.858C73.8934 431.41 74.342 431.857 74.8943 431.856C75.4465 431.855 75.8934 431.407 75.8923 430.854L73.8923 430.858ZM75.8817 426.821C75.8799 426.269 75.4307 425.822 74.8784 425.824C74.3262 425.826 73.8799 426.275 73.8817 426.827L75.8817 426.821ZM73.8659 422.847C73.8685 423.4 74.3183 423.845 74.8706 423.843C75.4229 423.84 75.8685 423.39 75.8659 422.838L73.8659 422.847ZM75.8449 418.905C75.8416 418.353 75.3912 417.908 74.8389 417.911C74.2866 417.915 73.8416 418.365 73.8449 418.917L75.8449 418.905ZM73.8188 415.037C73.8229 415.59 74.2739 416.034 74.8262 416.03C75.3785 416.026 75.8228 415.575 75.8187 415.022L73.8188 415.037ZM75.7874 411.189C75.7825 410.637 75.3308 410.193 74.7785 410.198C74.2263 410.203 73.7826 410.654 73.7875 411.207L75.7874 411.189ZM73.7487 407.193C73.7544 407.745 74.2068 408.188 74.7591 408.182C75.3113 408.177 75.7543 407.724 75.7486 407.172L73.7487 407.193ZM75.7026 403.098C75.696 402.546 75.2429 402.103 74.6906 402.11C74.1384 402.117 73.6961 402.57 73.7028 403.122L75.7026 403.098ZM73.6509 399.109C73.6585 399.661 74.1123 400.103 74.6646 400.095C75.2168 400.088 75.6583 399.634 75.6507 399.081L73.6509 399.109ZM75.5928 395.122C75.5843 394.57 75.1297 394.129 74.5775 394.138C74.0253 394.146 73.5845 394.601 73.5931 395.153L75.5928 395.122ZM73.5293 391.254C73.5388 391.806 73.9942 392.246 74.5464 392.236C75.0986 392.227 75.5385 391.772 75.529 391.219L73.5293 391.254ZM75.4593 387.373C75.4488 386.821 74.9927 386.381 74.4405 386.392C73.8883 386.402 73.4492 386.859 73.4597 387.411L75.4593 387.373ZM73.3811 383.473C73.3927 384.025 73.8496 384.463 74.4018 384.451C74.954 384.44 75.3922 383.983 75.3807 383.431L73.3811 383.473ZM75.291 379.343C75.2784 378.791 74.8205 378.354 74.2683 378.366C73.7162 378.379 73.2789 378.837 73.2916 379.389L75.291 379.343ZM73.1951 375.371C73.209 375.923 73.6678 376.36 74.2199 376.346C74.772 376.332 75.2083 375.873 75.1945 375.321L73.1951 375.371ZM75.0911 371.364C75.0761 370.812 74.6164 370.377 74.0643 370.392C73.5122 370.407 73.0769 370.866 73.0919 371.419L75.0911 371.364ZM72.9818 367.53C72.9981 368.082 73.4588 368.517 74.0108 368.5C74.5629 368.484 74.9972 368.023 74.981 367.471L72.9818 367.53ZM74.8641 363.642C74.8466 363.09 74.385 362.657 73.833 362.674C73.281 362.692 72.8476 363.153 72.8651 363.705L74.8641 363.642ZM72.7327 359.68C72.7516 360.232 73.2143 360.664 73.7663 360.645C74.3182 360.627 74.7504 360.164 74.7316 359.612L72.7327 359.68ZM74.5876 355.549C74.5674 354.997 74.1035 354.566 73.5516 354.586C72.9997 354.607 72.5687 355.07 72.589 355.622L74.5876 355.549ZM72.4373 351.639C72.4591 352.191 72.9241 352.621 73.476 352.599C74.0278 352.577 74.4575 352.112 74.4358 351.561L72.4373 351.639ZM74.2761 347.646C74.2528 347.094 73.7866 346.665 73.2348 346.689C72.6831 346.712 72.2546 347.178 72.2779 347.73L74.2761 347.646ZM72.1107 343.893C72.1355 344.445 72.6029 344.872 73.1546 344.848C73.7064 344.823 74.1335 344.355 74.1087 343.804L72.1107 343.893ZM73.9239 339.833C73.8974 339.281 73.4287 338.856 72.877 338.882C72.3254 338.909 71.8997 339.378 71.9262 339.929L73.9239 339.833ZM71.7241 335.864C71.7525 336.416 72.2226 336.84 72.7741 336.812C73.3257 336.783 73.7498 336.313 73.7215 335.762L71.7241 335.864ZM73.5099 331.776C73.4797 331.224 73.0081 330.802 72.4567 330.832C71.9052 330.862 71.4827 331.334 71.5129 331.885L73.5099 331.776ZM71.2926 327.99C71.3248 328.541 71.7978 328.962 72.3492 328.93C72.9005 328.898 73.3214 328.425 73.2893 327.874L71.2926 327.99ZM73.0597 324.054C73.0255 323.503 72.551 323.084 71.9997 323.118C71.4485 323.152 71.0293 323.627 71.0635 324.178L73.0597 324.054ZM70.8045 320.129C70.8408 320.68 71.3171 321.097 71.8682 321.061C72.4192 321.024 72.8365 320.548 72.8001 319.997L70.8045 320.129ZM72.5252 315.963C72.4865 315.412 72.0084 314.997 71.4575 315.036C70.9066 315.075 70.4914 315.553 70.5301 316.104L72.5252 315.963ZM70.2453 312.176C70.2864 312.727 70.7663 313.14 71.317 313.099C71.8678 313.057 72.2809 312.577 72.2397 312.027L70.2453 312.176ZM71.9438 308.186C71.9001 307.635 71.4183 307.224 70.8678 307.268C70.3172 307.312 69.9063 307.793 69.95 308.344L71.9438 308.186ZM69.6254 304.379C69.6719 304.93 70.1557 305.338 70.706 305.292C71.2563 305.245 71.6648 304.761 71.6183 304.211L69.6254 304.379ZM71.2657 300.166C71.2162 299.616 70.7302 299.21 70.1801 299.259C69.63 299.309 69.2242 299.795 69.2737 300.345L71.2657 300.166ZM68.9098 296.423C68.9624 296.973 69.4507 297.376 70.0005 297.323C70.5503 297.27 70.9533 296.782 70.9007 296.232L68.9098 296.423ZM70.5235 292.409C70.4677 291.859 69.977 291.459 69.4275 291.515C68.8781 291.571 68.4779 292.061 68.5338 292.611L70.5235 292.409ZM68.1134 288.606C68.1729 289.155 68.6662 289.552 69.2153 289.492C69.7644 289.433 70.1612 288.94 70.1017 288.391L68.1134 288.606ZM69.6534 284.386C69.5899 283.837 69.0938 283.444 68.5451 283.507C67.9965 283.571 67.6032 284.067 67.6666 284.616L69.6534 284.386ZM67.2056 280.753C67.2732 281.302 67.7722 281.691 68.3204 281.624C68.8685 281.556 69.2581 281.057 69.1906 280.509L67.2056 280.753ZM68.6976 276.634C68.6257 276.086 68.1235 275.701 67.5759 275.773C67.0283 275.845 66.6428 276.347 66.7147 276.894L68.6976 276.634ZM66.1677 272.871C66.2446 273.418 66.7504 273.799 67.2972 273.722C67.8442 273.645 68.2251 273.139 68.1482 272.592L66.1677 272.871ZM67.5818 268.699C67.4997 268.152 66.9903 267.776 66.4442 267.858C65.8981 267.941 65.5219 268.45 65.6041 268.996L67.5818 268.699ZM65.0099 265.178C65.0977 265.723 65.6108 266.094 66.1561 266.006C66.7014 265.918 67.0723 265.405 66.9845 264.86L65.0099 265.178ZM66.3124 260.833C66.2182 260.288 65.7007 259.924 65.1565 260.018C64.6123 260.112 64.2475 260.629 64.3417 261.174L66.3124 260.833ZM63.654 257.34C63.7549 257.883 64.2769 258.241 64.8199 258.14C65.3629 258.04 65.7212 257.518 65.6203 256.975L63.654 257.34ZM64.8698 253.085C64.7614 252.543 64.2345 252.192 63.693 252.301C63.1514 252.409 62.8003 252.936 62.9088 253.478L64.8698 253.085ZM62.0944 249.565C62.2112 250.105 62.7435 250.448 63.2833 250.331C63.823 250.215 64.1659 249.682 64.0491 249.142L62.0944 249.565ZM63.2053 245.39C63.0796 244.852 62.5418 244.518 62.004 244.643C61.4662 244.769 61.1321 245.307 61.2577 245.845L63.2053 245.39ZM60.2961 241.898C60.4322 242.434 60.9764 242.757 61.5116 242.621C62.0469 242.485 62.3705 241.941 62.2345 241.406L60.2961 241.898ZM61.2355 237.634C61.0885 237.102 60.5378 236.79 60.0054 236.937C59.4731 237.084 59.1607 237.634 59.3077 238.167L61.2355 237.634ZM58.1982 234.323C58.3578 234.852 58.9157 235.151 59.4445 234.992C59.9732 234.832 60.2725 234.274 60.1129 233.745L58.1982 234.323ZM58.9344 230.01C58.7614 229.486 58.196 229.201 57.6715 229.374C57.147 229.547 56.8621 230.112 57.0351 230.637L58.9344 230.01ZM55.7308 226.866C55.9191 227.385 56.4926 227.653 57.0118 227.465C57.531 227.277 57.7993 226.703 57.611 226.184L55.7308 226.866ZM56.2196 222.524C56.0152 222.011 55.4335 221.761 54.9205 221.965C54.4074 222.17 54.1573 222.752 54.3617 223.265L56.2196 222.524ZM52.8243 219.594C53.0468 220.1 53.6369 220.329 54.1424 220.107C54.6479 219.884 54.8773 219.294 54.6549 218.788L52.8243 219.594ZM52.9818 215.17C52.7405 214.674 52.1422 214.466 51.6454 214.708C51.1486 214.949 50.9414 215.547 51.1827 216.044L52.9818 215.17ZM49.4246 212.595C49.685 213.082 50.2909 213.266 50.7779 213.006C51.265 212.745 51.4487 212.139 51.1883 211.652L49.4246 212.595ZM49.2147 208.133C48.935 207.657 48.3222 207.498 47.846 207.777C47.3698 208.057 47.2105 208.67 47.4903 209.146L49.2147 208.133ZM45.4396 205.804C45.7372 206.269 46.3556 206.405 46.8208 206.108C47.2861 205.81 47.422 205.192 47.1244 204.726L45.4396 205.804ZM44.9227 201.411C44.6098 200.956 43.9872 200.841 43.5321 201.153C43.0771 201.466 42.9618 202.089 43.2747 202.544L44.9227 201.411ZM41.0081 199.342C41.3327 199.789 41.9581 199.888 42.4049 199.564C42.8517 199.239 42.9508 198.614 42.6262 198.167L41.0081 199.342ZM40.261 194.971C39.9293 194.53 39.3024 194.441 38.8608 194.773C38.4193 195.104 38.3302 195.731 38.662 196.173L40.261 194.971ZM36.2778 193.021C36.6116 193.461 37.2389 193.547 37.6789 193.214C38.1188 192.88 38.2049 192.252 37.871 191.812L36.2778 193.021ZM35.4944 188.665C35.1634 188.223 34.5367 188.133 34.0946 188.464C33.6525 188.795 33.5624 189.422 33.8934 189.864L35.4944 188.665ZM31.5389 186.67C31.8626 187.118 32.4878 187.218 32.9352 186.894C33.3827 186.57 33.483 185.945 33.1592 185.498L31.5389 186.67ZM30.886 182.278C30.5732 181.823 29.9506 181.708 29.4955 182.02C29.0403 182.333 28.925 182.956 29.2378 183.411L30.886 182.278ZM27.0199 180.082C27.3191 180.546 27.938 180.68 28.4022 180.381C28.8664 180.082 29 179.463 28.7007 178.998L27.0199 180.082ZM26.643 175.694C26.3587 175.221 25.7443 175.067 25.2709 175.352C24.7974 175.636 24.6442 176.25 24.9285 176.724L26.643 175.694ZM22.9312 173.271C23.1999 173.753 23.8088 173.927 24.2914 173.658C24.7739 173.39 24.9473 172.781 24.6787 172.298L22.9312 173.271ZM22.8046 168.797C22.5519 168.306 21.9489 168.113 21.4578 168.366C20.9667 168.618 20.7735 169.221 21.0262 169.712L22.8046 168.797ZM19.284 166.195C19.5217 166.694 20.1185 166.905 20.6171 166.668C21.1156 166.43 21.327 165.833 21.0894 165.335L19.284 166.195ZM19.4336 161.725C19.2106 161.22 18.6202 160.991 18.1149 161.214C17.6097 161.437 17.3809 162.027 17.6039 162.533L19.4336 161.725ZM16.0602 158.904C16.2698 159.415 16.8539 159.66 17.3649 159.45C17.8759 159.24 18.1202 158.656 17.9106 158.145L16.0602 158.904ZM16.4541 154.463C16.2573 153.947 15.6793 153.689 15.1634 153.886C14.6474 154.082 14.3887 154.66 14.5856 155.176L16.4541 154.463ZM13.2201 151.473C13.4055 151.993 13.9775 152.265 14.4978 152.079C15.018 151.894 15.2895 151.322 15.1041 150.802L13.2201 151.473ZM13.8056 147.032C13.6311 146.508 13.0648 146.225 12.5408 146.4C12.0169 146.574 11.7336 147.141 11.9082 147.665L13.8056 147.032ZM10.707 143.944C10.8719 144.471 11.4329 144.765 11.96 144.6C12.4871 144.435 12.7807 143.874 12.6158 143.347L10.707 143.944ZM11.4368 139.458C11.2812 138.928 10.7254 138.624 10.1955 138.78C9.66562 138.936 9.36224 139.491 9.51789 140.021L11.4368 139.458ZM8.46137 136.32C8.60902 136.852 9.16014 137.164 9.69232 137.016C10.2245 136.869 10.5362 136.318 10.3886 135.785L8.46137 136.32ZM9.35336 131.946C9.21337 131.412 8.66679 131.092 8.13254 131.232C7.5983 131.372 7.27869 131.919 7.41868 132.453L9.35336 131.946ZM6.42929 128.571C6.56222 129.107 7.10454 129.434 7.64058 129.301C8.17663 129.168 8.50342 128.626 8.37048 128.09L6.42929 128.571ZM7.46259 124.333C7.33598 123.795 6.79755 123.462 6.25997 123.589C5.7224 123.715 5.38924 124.254 5.51585 124.791L7.46259 124.333ZM4.61243 120.855C4.73296 121.394 5.26759 121.733 5.80656 121.612C6.34553 121.492 6.68475 120.957 6.56422 120.418L4.61243 120.855ZM5.68848 116.376C5.57647 115.835 5.04727 115.487 4.50646 115.599C3.96565 115.711 3.61803 116.24 3.73003 116.781L5.68848 116.376ZM2.94062 112.758C3.04115 113.301 3.56289 113.659 4.10595 113.559C4.649 113.458 5.00774 112.937 4.9072 112.393L2.94062 112.758ZM4.22248 108.455C4.13397 107.909 3.62029 107.539 3.07514 107.628C2.53 107.716 2.15982 108.23 2.24833 108.775L4.22248 108.455ZM1.63462 104.69C1.71005 105.237 2.21471 105.619 2.76182 105.544C3.30893 105.468 3.69131 104.963 3.61588 104.416L1.63462 104.69ZM3.12133 100.472C3.05947 99.9236 2.56443 99.5289 2.01562 99.5907C1.46681 99.6526 1.07205 100.148 1.13391 100.696L3.12133 100.472ZM0.724554 96.5669C0.771494 97.1171 1.25564 97.5252 1.80593 97.4782C2.35621 97.4313 2.76426 96.9472 2.71732 96.3969L0.724554 96.5669ZM2.43431 92.4295C2.40282 91.8781 1.93031 91.4566 1.37892 91.4881C0.827534 91.5196 0.406073 91.9921 0.43756 92.5435L2.43431 92.4295ZM0.264003 88.4004C0.278564 88.9525 0.737927 89.3883 1.29002 89.3737C1.84211 89.3591 2.27787 88.8998 2.26331 88.3477L0.264003 88.4004ZM2.22105 84.3688C2.22406 83.8165 1.7788 83.3664 1.22652 83.3634C0.674243 83.3604 0.224092 83.8056 0.221079 84.3579L2.22105 84.3688ZM0.314856 80.2146C0.292679 80.7664 0.722056 81.2318 1.2739 81.254C1.82573 81.2761 2.29107 80.8467 2.31324 80.2949L0.314856 80.2146ZM2.54533 76.3049C2.58749 75.7542 2.17526 75.2736 1.62458 75.2314C1.07391 75.1893 0.593325 75.6015 0.551166 76.1522L2.54533 76.3049ZM0.944993 72.0501C0.881398 72.5987 1.27458 73.095 1.82319 73.1586C2.3718 73.2222 2.86809 72.829 2.93169 72.2804L0.944993 72.0501ZM3.4756 68.2993C3.56171 67.7538 3.18929 67.2418 2.64376 67.1556C2.09823 67.0695 1.58618 67.442 1.50006 67.9875L3.4756 68.2993ZM2.22402 63.9652C2.1143 64.5065 2.46415 65.0343 3.00542 65.144C3.5467 65.2537 4.07443 64.9038 4.18415 64.3626L2.22402 63.9652ZM5.07715 60.4239C5.21182 59.8883 4.88679 59.3449 4.35118 59.2102C3.81556 59.0756 3.27219 59.4006 3.13752 59.9362L5.07715 60.4239ZM4.23077 55.9904C4.07039 56.5189 4.36881 57.0773 4.89729 57.2377C5.42578 57.398 5.98421 57.0996 6.14459 56.5711L4.23077 55.9904ZM7.40527 52.7646C7.59226 52.245 7.32257 51.6721 6.8029 51.4851C6.28323 51.2981 5.71037 51.5678 5.52339 52.0875L7.40527 52.7646ZM7.02259 48.2423C6.8083 48.7514 7.04722 49.3377 7.55624 49.552C8.06526 49.7663 8.65161 49.5274 8.8659 49.0184L7.02259 48.2423ZM10.5169 45.3767C10.7587 44.8801 10.5522 44.2816 10.0556 44.0398C9.5591 43.798 8.96056 44.0046 8.71878 44.5011L10.5169 45.3767ZM10.6194 40.8603C10.3501 41.3425 10.5227 41.9516 11.0049 42.2209C11.4871 42.4902 12.0963 42.3176 12.3655 41.8354L10.6194 40.8603ZM14.4243 38.3856C14.721 37.9197 14.5837 37.3016 14.1179 37.005C13.652 36.7084 13.0339 36.8456 12.7373 37.3115L14.4243 38.3856ZM15.0504 33.9013C14.7272 34.3491 14.8282 34.9742 15.2761 35.2973C15.7239 35.6205 16.3489 35.5195 16.6721 35.0717L15.0504 33.9013ZM19.1052 31.8993C19.454 31.4711 19.3895 30.8412 18.9613 30.4925C18.533 30.1437 17.9031 30.2082 17.5544 30.6364L19.1052 31.8993ZM20.2441 27.5228C19.8711 27.9301 19.899 28.5627 20.3063 28.9357C20.7136 29.3087 21.3461 29.2809 21.7191 28.8736L20.2441 27.5228ZM24.5125 25.9945C24.9082 25.6094 24.9168 24.9762 24.5317 24.5805C24.1465 24.1847 23.5134 24.1761 23.1176 24.5613L24.5125 25.9945ZM26.1503 21.7723C25.7334 22.1346 25.6892 22.7662 26.0515 23.1831C26.4138 23.5999 27.0454 23.6441 27.4623 23.2818L26.1503 21.7723ZM30.5575 20.7379C30.9936 20.399 31.0724 19.7708 30.7335 19.3347C30.3946 18.8986 29.7664 18.8198 29.3303 19.1587L30.5575 20.7379ZM32.6445 16.7224C32.191 17.0376 32.079 17.6608 32.3942 18.1142C32.7095 18.5677 33.3326 18.6798 33.7861 18.3645L32.6445 16.7224ZM37.1361 16.1616C37.6051 15.87 37.749 15.2534 37.4574 14.7844C37.1658 14.3154 36.5492 14.1715 36.0802 14.4631L37.1361 16.1616ZM39.628 12.378C39.1451 12.6461 38.971 13.2548 39.239 13.7377C39.5071 14.2205 40.1159 14.3947 40.5987 14.1266L39.628 12.378ZM44.1564 12.2611C44.6514 12.0163 44.8542 11.4164 44.6093 10.9214C44.3644 10.4264 43.7646 10.2236 43.2696 10.4685L44.1564 12.2611ZM46.9933 8.73127C46.4877 8.95341 46.2579 9.5434 46.48 10.049C46.7021 10.5547 47.2921 10.7845 47.7978 10.5624L46.9933 8.73127ZM51.5119 9.02693C52.0268 8.82703 52.2821 8.24762 52.0822 7.73278C51.8823 7.21794 51.3029 6.96263 50.788 7.16253L51.5119 9.02693ZM54.6433 5.75832C54.1205 5.93651 53.8412 6.50473 54.0194 7.02748C54.1976 7.55023 54.7658 7.82956 55.2885 7.65138L54.6433 5.75832ZM59.1193 6.43175C59.6488 6.27477 59.9508 5.71826 59.7938 5.18876C59.6368 4.65925 59.0803 4.35726 58.5508 4.51424L59.1193 6.43175ZM62.5095 3.42457C61.9743 3.56078 61.6508 4.10509 61.787 4.64031C61.9232 5.17554 62.4676 5.499 63.0028 5.36278L62.5095 3.42457ZM66.9252 4.44358C67.4652 4.32772 67.8091 3.79605 67.6932 3.25606C67.5774 2.71606 67.0457 2.37222 66.5057 2.48808L66.9252 4.44358ZM70.5326 1.70198C69.9887 1.79778 69.6255 2.31637 69.7213 2.86029C69.8171 3.4042 70.3357 3.76747 70.8796 3.67167L70.5326 1.70198ZM74.8594 3.04534C75.4064 2.96942 75.7884 2.4644 75.7124 1.91736C75.6365 1.37032 75.1315 0.988406 74.5844 1.06433L74.8594 3.04534ZM78.6559 0.574251C78.1064 0.630308 77.7065 1.12115 77.7625 1.67059C77.8186 2.22002 78.3094 2.61998 78.8589 2.56392L78.6559 0.574251ZM82.8726 2.22811C83.4238 2.19214 83.8414 1.71622 83.8054 1.1651C83.7694 0.613991 83.2935 0.196387 82.7424 0.232358L82.8726 2.22811ZM86.8399 0.0412778C86.2878 0.0566413 85.8527 0.516638 85.8681 1.06871C85.8834 1.62078 86.3434 2.05587 86.8955 2.0405L86.8399 0.0412778ZM90.9218 2.00634C91.4741 2.01253 91.9268 1.56987 91.933 1.01762C91.9392 0.465365 91.4965 0.0126562 90.9442 0.00646108L90.9218 2.00634ZM95.0505 0.137414C94.4989 0.108073 94.0281 0.531372 93.9987 1.08288C93.9694 1.63438 94.3927 2.10525 94.9442 2.13459L95.0505 0.137414ZM75.8983 437C75.8983 436.311 75.898 435.624 75.8976 434.939L73.8976 434.94C73.898 435.624 73.8983 436.311 73.8983 437H75.8983ZM75.8923 430.854C75.8896 429.501 75.8861 428.157 75.8817 426.821L73.8817 426.827C73.8861 428.163 73.8897 429.506 73.8923 430.858L75.8923 430.854ZM75.8659 422.838C75.8598 421.519 75.8528 420.208 75.8449 418.905L73.8449 418.917C73.8528 420.219 73.8598 421.529 73.8659 422.847L75.8659 422.838ZM75.8187 415.022C75.8091 413.736 75.7987 412.459 75.7874 411.189L73.7875 411.207C73.7988 412.475 73.8092 413.752 73.8188 415.037L75.8187 415.022ZM75.7486 407.172C75.7343 405.804 75.7189 404.446 75.7026 403.098L73.7028 403.122C73.7191 404.469 73.7344 405.826 73.7487 407.193L75.7486 407.172ZM75.6507 399.081C75.6324 397.752 75.6131 396.432 75.5928 395.122L73.5931 395.153C73.6133 396.462 73.6326 397.781 73.6509 399.109L75.6507 399.081ZM75.529 391.219C75.5068 389.928 75.4835 388.646 75.4593 387.373L73.4597 387.411C73.4839 388.683 73.5071 389.964 73.5293 391.254L75.529 391.219ZM75.3807 383.431C75.3519 382.057 75.3221 380.695 75.291 379.343L73.2916 379.389C73.3226 380.739 73.3524 382.1 73.3811 383.473L75.3807 383.431ZM75.1945 375.321C75.1612 373.991 75.1267 372.672 75.0911 371.364L73.0919 371.419C73.1274 372.725 73.1618 374.043 73.1951 375.371L75.1945 375.321ZM74.981 367.471C74.9431 366.184 74.9042 364.908 74.8641 363.642L72.8651 363.705C72.9051 364.97 72.9441 366.245 72.9818 367.53L74.981 367.471ZM74.7316 359.612C74.6849 358.245 74.6369 356.891 74.5876 355.549L72.589 355.622C72.6382 356.962 72.6861 358.315 72.7327 359.68L74.7316 359.612ZM74.4358 351.561C74.3839 350.243 74.3306 348.938 74.2761 347.646L72.2779 347.73C72.3323 349.021 72.3855 350.324 72.4373 351.639L74.4358 351.561ZM74.1087 343.804C74.0485 342.467 73.9869 341.143 73.9239 339.833L71.9262 339.929C71.9891 341.237 72.0506 342.559 72.1107 343.893L74.1087 343.804ZM73.7215 335.762C73.6525 334.419 73.5819 333.09 73.5099 331.776L71.5129 331.885C71.5848 333.197 71.6552 334.524 71.7241 335.864L73.7215 335.762ZM73.2893 327.874C73.2142 326.587 73.1377 325.314 73.0597 324.054L71.0635 324.178C71.1413 325.435 71.2177 326.706 71.2926 327.99L73.2893 327.874ZM72.8001 319.997C72.7103 318.636 72.6186 317.292 72.5252 315.963L70.5301 316.104C70.6233 317.429 70.7148 318.771 70.8045 320.129L72.8001 319.997ZM72.2397 312.027C72.1428 310.731 72.0441 309.45 71.9438 308.186L69.95 308.344C70.0502 309.605 70.1486 310.883 70.2453 312.176L72.2397 312.027ZM71.6183 304.211C71.5028 302.844 71.3853 301.495 71.2657 300.166L69.2737 300.345C69.393 301.671 69.5102 303.016 69.6254 304.379L71.6183 304.211ZM70.9007 296.232C70.777 294.94 70.6513 293.665 70.5235 292.409L68.5338 292.611C68.6611 293.863 68.7865 295.134 68.9098 296.423L70.9007 296.232ZM70.1017 288.391C69.9547 287.034 69.8052 285.699 69.6534 284.386L67.6666 284.616C67.8179 285.924 67.9668 287.254 68.1134 288.606L70.1017 288.391ZM69.1906 280.509C69.0288 279.195 68.8645 277.904 68.6976 276.634L66.7147 276.894C66.8808 278.159 67.0444 279.445 67.2056 280.753L69.1906 280.509ZM68.1482 272.592C67.9622 271.27 67.7734 269.972 67.5818 268.699L65.6041 268.996C65.7947 270.263 65.9826 271.555 66.1677 272.871L68.1482 272.592ZM66.9845 264.86C66.7638 263.489 66.5397 262.146 66.3124 260.833L64.3417 261.174C64.5677 262.48 64.7905 263.814 65.0099 265.178L66.9845 264.86ZM65.6203 256.975C65.3737 255.648 65.1235 254.352 64.8698 253.085L62.9088 253.478C63.1606 254.735 63.409 256.022 63.654 257.34L65.6203 256.975ZM64.0491 249.142C63.7716 247.86 63.4903 246.61 63.2053 245.39L61.2577 245.845C61.5402 247.054 61.8191 248.294 62.0944 249.565L64.0491 249.142ZM62.2345 241.406C61.906 240.113 61.5729 238.857 61.2355 237.634L59.3077 238.167C59.6413 239.375 59.9709 240.619 60.2961 241.898L62.2345 241.406ZM60.1129 233.745C59.7253 232.461 59.3324 231.217 58.9344 230.01L57.0351 230.637C57.4275 231.826 57.8153 233.055 58.1982 234.323L60.1129 233.745ZM57.611 226.184C57.1531 224.921 56.6892 223.703 56.2196 222.524L54.3617 223.265C54.8234 224.423 55.2799 225.622 55.7308 226.866L57.611 226.184ZM54.6549 218.788C54.1039 217.537 53.5461 216.332 52.9818 215.17L51.1827 216.044C51.736 217.184 52.2834 218.365 52.8243 219.594L54.6549 218.788ZM51.1883 211.652C50.5375 210.435 49.8794 209.265 49.2147 208.133L47.4903 209.146C48.1418 210.255 48.7868 211.402 49.4246 212.595L51.1883 211.652ZM47.1244 204.726C46.3965 203.588 45.6623 202.486 44.9227 201.411L43.2747 202.544C44.0031 203.603 44.7249 204.687 45.4396 205.804L47.1244 204.726ZM42.6262 198.167C41.842 197.087 41.0531 196.026 40.261 194.971L38.662 196.173C39.45 197.222 40.2322 198.274 41.0081 199.342L42.6262 198.167ZM37.871 191.812C37.0806 190.771 36.2885 189.726 35.4944 188.665L33.8934 189.864C34.6918 190.93 35.4874 191.98 36.2778 193.021L37.871 191.812ZM33.1592 185.498C32.4019 184.451 31.644 183.381 30.886 182.278L29.2378 183.411C30.0062 184.529 30.7736 185.612 31.5389 186.67L33.1592 185.498ZM28.7007 178.998C28.0143 177.934 27.3282 176.835 26.643 175.694L24.9285 176.724C25.6251 177.884 26.3225 179.001 27.0199 180.082L28.7007 178.998ZM24.6787 172.298C24.0528 171.174 23.4279 170.008 22.8046 168.797L21.0262 169.712C21.6596 170.943 22.2948 172.128 22.9312 173.271L24.6787 172.298ZM21.0894 165.335C20.5358 164.173 19.9838 162.972 19.4336 161.725L17.6039 162.533C18.1619 163.797 18.722 165.016 19.284 166.195L21.0894 165.335ZM17.9106 158.145C17.4234 156.957 16.9378 155.731 16.4541 154.463L14.5856 155.176C15.075 156.459 15.5666 157.701 16.0602 158.904L17.9106 158.145ZM15.1041 150.802C14.6695 149.582 14.2366 148.326 13.8056 147.032L11.9082 147.665C12.3434 148.971 12.7807 150.24 13.2201 151.473L15.1041 150.802ZM12.6158 143.347C12.2209 142.085 11.8279 140.789 11.4368 139.458L9.51789 140.021C9.91217 141.364 10.3086 142.671 10.707 143.944L12.6158 143.347ZM10.3886 135.785C10.0418 134.536 9.69668 133.256 9.35336 131.946L7.41868 132.453C7.76437 133.772 8.11197 135.061 8.46137 136.32L10.3886 135.785ZM8.37048 128.09C8.06631 126.863 7.76366 125.611 7.46259 124.333L5.51585 124.791C5.81868 126.077 6.12318 127.337 6.42929 128.571L8.37048 128.09ZM6.56422 120.418C6.41531 119.752 6.26681 119.08 6.11874 118.4L4.16459 118.826C4.31343 119.509 4.46271 120.185 4.61243 120.855L6.56422 120.418ZM6.11874 118.4C5.97087 117.722 5.82747 117.047 5.68848 116.376L3.73003 116.781C3.87043 117.459 4.01527 118.141 4.16459 118.826L6.11874 118.4ZM4.9072 112.393C4.66134 111.065 4.43322 109.752 4.22248 108.455L2.24833 108.775C2.46147 110.088 2.69212 111.415 2.94062 112.758L4.9072 112.393ZM3.61588 104.416C3.43238 103.085 3.26766 101.771 3.12133 100.472L1.13391 100.696C1.28213 102.011 1.4489 103.342 1.63462 104.69L3.61588 104.416ZM2.71732 96.3969C2.60298 95.0564 2.50881 93.7341 2.43431 92.4295L0.43756 92.5435C0.513143 93.8671 0.608652 95.2081 0.724554 96.5669L2.71732 96.3969ZM2.26331 88.3477C2.22781 87.0016 2.21392 85.6754 2.22105 84.3688L0.221079 84.3579C0.213832 85.6861 0.227954 87.0335 0.264003 88.4004L2.26331 88.3477ZM2.31324 80.2949C2.36757 78.943 2.44518 77.613 2.54533 76.3049L0.551166 76.1522C0.449138 77.4848 0.370141 78.8389 0.314856 80.2146L2.31324 80.2949ZM2.93169 72.2804C3.08834 70.929 3.26993 69.6021 3.4756 68.2993L1.50006 67.9875C1.29006 69.3178 1.10476 70.6719 0.944993 72.0501L2.93169 72.2804ZM4.18415 64.3626C4.45572 63.0228 4.75374 61.7101 5.07715 60.4239L3.13752 59.9362C2.80649 61.2527 2.50165 62.5956 2.22402 63.9652L4.18415 64.3626ZM6.14459 56.5711C6.5383 55.2737 6.95894 54.0051 7.40527 52.7646L5.52339 52.0875C5.0655 53.3601 4.63422 54.6608 4.23077 55.9904L6.14459 56.5711ZM8.8659 49.0184C9.38967 47.7742 9.94049 46.5605 10.5169 45.3767L8.71878 44.5011C8.12632 45.7178 7.56045 46.9647 7.02259 48.2423L8.8659 49.0184ZM12.3655 41.8354C13.0255 40.6536 13.7124 39.5039 14.4243 38.3856L12.7373 37.3115C12.0047 38.4621 11.2982 39.6448 10.6194 40.8603L12.3655 41.8354ZM16.6721 35.0717C17.4586 33.9819 18.2702 32.9247 19.1052 31.8993L17.5544 30.6364C16.6951 31.6917 15.8598 32.7797 15.0504 33.9013L16.6721 35.0717ZM21.7191 28.8736C22.6278 27.8813 23.5596 26.9219 24.5125 25.9945L23.1176 24.5613C22.1376 25.5149 21.1791 26.5018 20.2441 27.5228L21.7191 28.8736ZM27.4623 23.2818C28.4748 22.4018 29.5072 21.5541 30.5575 20.7379L29.3303 19.1587C28.2517 19.997 27.1909 20.8678 26.1503 21.7723L27.4623 23.2818ZM33.7861 18.3645C34.8872 17.599 36.0046 16.865 37.1361 16.1616L36.0802 14.4631C34.9203 15.1842 33.7743 15.9369 32.6445 16.7224L33.7861 18.3645ZM40.5987 14.1266C41.7731 13.4746 42.9598 12.8531 44.1564 12.2611L43.2696 10.4685C42.0453 11.0742 40.8306 11.7103 39.628 12.378L40.5987 14.1266ZM47.7978 10.5624C49.0288 10.0215 50.2676 9.51007 51.5119 9.02693L50.788 7.16253C49.5173 7.65593 48.2516 8.17848 46.9933 8.73127L47.7978 10.5624ZM55.2885 7.65138C56.5632 7.21691 57.8409 6.81073 59.1193 6.43175L58.5508 4.51424C57.2473 4.90068 55.9439 5.31499 54.6433 5.75832L55.2885 7.65138ZM63.0028 5.36278C64.3133 5.02925 65.6217 4.72324 66.9252 4.44358L66.5057 2.48808C65.178 2.77293 63.845 3.08469 62.5095 3.42457L63.0028 5.36278ZM70.8796 3.67167C72.2155 3.43637 73.5431 3.22803 74.8594 3.04534L74.5844 1.06433C73.2445 1.25031 71.8928 1.46241 70.5326 1.70198L70.8796 3.67167ZM78.8589 2.56392C80.214 2.42566 81.5531 2.31424 82.8726 2.22811L82.7424 0.232358C81.3987 0.320058 80.0354 0.433505 78.6559 0.574251L78.8589 2.56392ZM86.8955 2.0405C88.266 2.00236 89.6096 1.99161 90.9218 2.00634L90.9442 0.00646108C89.6058 -0.00855303 88.2362 0.0024181 86.8399 0.0412778L86.8955 2.0405ZM94.9442 2.13459C95.6151 2.17028 96.2755 2.21282 96.9246 2.26189L97.0754 0.267584C96.4112 0.217376 95.736 0.173887 95.0505 0.137414L94.9442 2.13459Z" fill="#D6E0E2"/>
</svg>
